# This file uses centimeters as units for non-parametric coordinates.

mtllib Bow_v01.mtl
v 0.025157 16.948532 -3.549666
v -0.027685 16.948532 -3.549666
v 0.025157 16.948532 -3.470058
v -0.027685 16.948532 -3.470058
v -0.026421 0.000000 -3.549643
v 0.026421 0.000000 -3.549643
v 0.026421 0.000000 -3.470037
v -0.026421 0.000000 -3.470037
v 0.339377 0.000000 -0.219111
v -0.339377 0.000000 -0.219111
v 0.339377 0.000000 0.246650
v -0.339377 0.000000 0.246650
v 0.000000 0.000000 0.360244
v 0.000000 0.000000 -0.341773
v 0.488688 0.000000 -0.000000
v -0.488688 0.000000 -0.000000
v 0.304481 5.082939 -0.506164
v -0.303741 5.082939 -0.506164
v 0.304481 5.166537 -0.081992
v -0.303741 5.166537 -0.081992
v 0.252513 9.769836 -1.258598
v -0.250168 9.769836 -1.258598
v -0.250168 10.015043 -0.942444
v 0.252513 10.015043 -0.942444
v 0.197327 14.089823 -2.524640
v -0.193091 14.089823 -2.524639
v -0.193091 14.286783 -2.269473
v 0.197327 14.286779 -2.269473
v 0.102576 16.979561 -3.628270
v -0.101936 16.979561 -3.628269
v -0.101936 17.076538 -3.489841
v 0.102576 17.076538 -3.489843
v -0.007077 14.337643 -2.205649
v -0.009849 10.047962 -0.849328
v -0.013594 5.126283 0.012706
v -0.013594 5.017847 -0.643709
v -0.009849 9.719687 -1.407445
v -0.007077 14.113901 -2.681535
v -0.001264 17.025703 -3.679755
v -0.001264 17.175438 -3.509858
v -0.275349 14.212847 -2.433002
v -0.131853 17.118923 -3.611033
v -0.000798 17.251858 -3.663392
v 0.133723 17.118923 -3.611032
v 0.278931 14.212847 -2.433002
v 0.363438 9.873718 -1.122221
v 0.426333 5.068427 -0.317698
v -0.426639 5.068426 -0.317698
v -0.360684 9.873718 -1.122221
v -0.316702 12.110569 -1.706727
v -0.220750 11.994698 -1.817985
v -0.008420 11.977522 -1.971695
v 0.224070 11.994698 -1.817984
v 0.319882 12.110569 -1.706727
v 0.224070 12.222149 -1.536108
v -0.008420 12.265863 -1.459048
v -0.220750 12.222149 -1.536108
v -0.392814 7.532482 -0.655390
v -0.276267 7.488462 -0.819189
v -0.011673 7.434803 -0.962759
v 0.277830 7.488462 -0.819189
v 0.394078 7.532482 -0.655390
v 0.277830 7.649580 -0.446680
v -0.011674 7.644690 -0.351860
v -0.276267 7.649580 -0.446680
v -0.025157 -16.948532 -3.549666
v 0.027685 -16.948532 -3.549666
v -0.025157 -16.948532 -3.470058
v 0.027685 -16.948532 -3.470058
v -0.304481 -5.082939 -0.506164
v 0.303741 -5.082939 -0.506164
v -0.304481 -5.166537 -0.081992
v 0.303741 -5.166537 -0.081992
v -0.252513 -9.769836 -1.258598
v 0.250168 -9.769836 -1.258598
v 0.250168 -10.015043 -0.942444
v -0.252513 -10.015043 -0.942444
v -0.197327 -14.089823 -2.524640
v 0.193091 -14.089823 -2.524639
v 0.193091 -14.286783 -2.269473
v -0.197327 -14.286779 -2.269473
v -0.102576 -16.979561 -3.628270
v 0.101936 -16.979561 -3.628269
v 0.101936 -17.076538 -3.489841
v -0.102576 -17.076538 -3.489843
v 0.007077 -14.337643 -2.205649
v 0.009849 -10.047962 -0.849328
v 0.013594 -5.126283 0.012706
v 0.013594 -5.017847 -0.643709
v 0.009849 -9.719687 -1.407445
v 0.007077 -14.113901 -2.681535
v 0.001264 -17.025703 -3.679755
v 0.001264 -17.175438 -3.509858
v 0.275349 -14.212847 -2.433002
v 0.131853 -17.118923 -3.611033
v 0.000798 -17.251858 -3.663392
v -0.133723 -17.118923 -3.611032
v -0.278931 -14.212847 -2.433002
v -0.363438 -9.873718 -1.122221
v -0.426333 -5.068427 -0.317698
v 0.426639 -5.068426 -0.317698
v 0.360684 -9.873718 -1.122221
v 0.316702 -12.110569 -1.706727
v 0.220750 -11.994698 -1.817985
v 0.008420 -11.977522 -1.971695
v -0.224070 -11.994698 -1.817984
v -0.319882 -12.110569 -1.706727
v -0.224070 -12.222149 -1.536108
v 0.008420 -12.265863 -1.459048
v 0.220750 -12.222149 -1.536108
v 0.392814 -7.532482 -0.655390
v 0.276267 -7.488462 -0.819189
v 0.011673 -7.434803 -0.962759
v -0.277830 -7.488462 -0.819189
v -0.394078 -7.532482 -0.655390
v -0.277830 -7.649580 -0.446680
v 0.011674 -7.644690 -0.351860
v 0.276267 -7.649580 -0.446680
v 0.442146 -3.801775 -0.162473
v 0.312647 -3.812661 -0.358598
v 0.010197 -3.763836 -0.492422
v -0.313202 -3.812661 -0.358598
v -0.441916 -3.801776 -0.162473
v -0.313202 -3.875367 0.075968
v 0.010197 -3.845173 0.175389
v 0.312647 -3.875367 0.075968
v 0.463855 -2.028478 -0.030935
v 0.325115 -2.034286 -0.237782
v 0.005441 -2.008235 -0.366400
v -0.325411 -2.034286 -0.237782
v -0.463733 -2.028478 -0.030935
v -0.325411 -2.067744 0.211335
v 0.005441 -2.051633 0.317367
v 0.325115 -2.067744 0.211335
v 0.461986 2.170430 -0.038416
v 0.324434 2.176645 -0.244404
v -0.005821 2.148770 -0.373439
v -0.324117 2.176645 -0.244404
v -0.462117 2.170430 -0.038416
v -0.324117 2.212443 0.203547
v -0.005821 2.195205 0.309050
v 0.324434 2.212443 0.203547
v 0.441090 3.868947 -0.166013
v 0.312739 3.880025 -0.361731
v -0.010377 3.830337 -0.495754
v -0.312175 3.880025 -0.361731
v -0.441323 3.868946 -0.166013
v -0.312175 3.943839 0.072283
v -0.010377 3.913111 0.171454
v 0.312739 3.943839 0.072283
vt 0.761486 0.983676
vt 0.761486 0.591747
vt 0.761486 0.730160
vt 0.761486 0.350414
vt 0.761486 0.467274
vt 0.761486 0.134804
vt 0.983533 0.983676
vt 0.282902 0.727480
vt 0.938786 0.983676
vt 0.565392 0.727480
vt 0.565392 0.134804
vt 0.282902 0.059696
vt 0.531948 0.059696
vt 0.351899 0.017288
vt 0.495783 0.727480
vt 0.451012 0.727480
vt 0.850289 0.983676
vt 0.805887 0.983676
vt 0.725587 0.983676
vt 0.351899 0.727480
vt 0.692389 0.983676
vt 0.319732 0.727480
vt 0.886157 0.983676
vt 0.531948 0.727480
vt 0.611236 0.590473
vt 0.565392 0.590473
vt 0.351899 0.590473
vt 0.319732 0.590473
vt 0.451012 0.590473
vt 0.495783 0.590473
vt 0.531948 0.590473
vt 0.565392 0.463078
vt 0.611236 0.463078
vt 0.565392 0.348213
vt 0.611236 0.348213
vt 0.319732 0.463078
vt 0.351899 0.463078
vt 0.319732 0.348213
vt 0.351899 0.348213
vt 0.451012 0.463078
vt 0.495783 0.463078
vt 0.451012 0.348213
vt 0.495783 0.348213
vt 0.531948 0.463078
vt 0.531948 0.348213
vt 0.565392 0.243513
vt 0.611236 0.243513
vt 0.850289 0.591747
vt 0.850289 0.730160
vt 0.319732 0.243513
vt 0.351899 0.243513
vt 0.319732 0.134804
vt 0.351899 0.059696
vt 0.451012 0.059696
vt 0.451012 0.243513
vt 0.495783 0.134804
vt 0.495783 0.243513
vt 0.531948 0.243513
vt 0.850289 0.350414
vt 0.406242 0.463078
vt 0.406242 0.348213
vt 0.406242 0.727480
vt 0.406242 0.590473
vt 0.850289 0.467274
vt 0.725587 0.242360
vt 0.805887 0.242360
vt 0.406242 0.243513
vt 0.406242 0.134804
vt 0.886157 0.242360
vt 0.938786 0.242360
vt 0.646859 0.242360
vt 0.692389 0.242360
vt 0.725587 0.350414
vt 0.725587 0.467274
vt 0.805887 0.350414
vt 0.805887 0.467274
vt 0.886157 0.350414
vt 0.938786 0.350414
vt 0.886157 0.467274
vt 0.938786 0.467274
vt 0.646859 0.350414
vt 0.761486 0.242360
vt 0.692389 0.350414
vt 0.725587 0.065859
vt 0.850289 0.134804
vt 0.805887 0.065859
vt 0.886157 0.065859
vt 0.886157 0.019708
vt 0.646859 0.467274
vt 0.850289 0.242360
vt 0.938786 0.134804
vt 0.692389 0.467274
vt 0.983533 0.730160
vt 0.725587 0.591747
vt 0.692389 0.730160
vt 0.692389 0.134804
vt 0.983533 0.065859
vt 0.805887 0.591747
vt 0.938786 0.591747
vt 0.886157 0.591747
vt 0.805887 0.730160
vt 0.692389 0.591747
vt 0.646859 0.591747
vt 0.725587 0.730160
vt 0.886157 0.730160
vt 0.938786 0.730160
vt 0.983533 0.467274
vt 0.983533 0.591747
vt 0.983533 0.242360
vt 0.983533 0.350414
vt 0.646859 0.730160
vt 0.282902 0.986544
vt 0.282902 0.463078
vt 0.282902 0.590473
vt 0.282902 0.243513
vt 0.282902 0.348213
vt 0.611236 0.727480
vt 0.646859 0.065859
vt 0.611236 0.059696
vt 0.531948 0.017288
vt 0.725587 0.019708
vt 0.351899 0.986545
vt 0.406242 0.986545
vt 0.495783 0.986545
vt 0.531948 0.986545
vt 0.611236 0.986545
vt 0.646859 0.983676
vt 0.319732 0.986544
vt 0.451012 0.986544
vt 0.565392 0.986545
vt 0.056421 0.051791
vt 0.027854 0.051791
vt 0.056421 0.017772
vt 0.027854 0.017772
vt 0.056101 0.534150
vt 0.028216 0.534150
vt 0.055433 0.078310
vt 0.028883 0.989990
vt 0.027549 0.078310
vt 0.056768 0.989990
vt 0.074756 0.534150
vt 0.116764 0.534150
vt 0.074768 0.989990
vt 0.116777 0.078310
vt 0.116777 0.989990
vt 0.074768 0.078310
vt 0.165326 0.989990
vt 0.137442 0.989990
vt 0.165993 0.534150
vt 0.138108 0.534150
vt 0.166660 0.078310
vt 0.138775 0.078310
vt 0.179503 0.534150
vt 0.221510 0.534150
vt 0.179490 0.989990
vt 0.221499 0.078310
vt 0.221499 0.989990
vt 0.179490 0.078310
vt 0.222833 0.051791
vt 0.194266 0.017772
vt 0.222833 0.017772
vt 0.194266 0.051791
vt 0.886157 0.793516
vt 0.938786 0.793516
vt 0.646859 0.793516
vt 0.983533 0.793516
vt 0.692389 0.793516
vt 0.725587 0.793516
vt 0.761486 0.793516
vt 0.805887 0.793516
vt 0.850289 0.793516
vt 0.886157 0.882214
vt 0.938786 0.882214
vt 0.646859 0.882214
vt 0.983533 0.882214
vt 0.692389 0.882214
vt 0.725587 0.882214
vt 0.761486 0.882214
vt 0.805887 0.882214
vt 0.850289 0.882214
vt 0.531948 0.909369
vt 0.565392 0.909369
vt 0.611236 0.909369
vt 0.282902 0.909369
vt 0.319732 0.909369
vt 0.351899 0.909369
vt 0.406242 0.909369
vt 0.451012 0.909369
vt 0.495783 0.909369
vt 0.531948 0.788789
vt 0.565392 0.788789
vt 0.611236 0.788789
vt 0.282902 0.788789
vt 0.319732 0.788789
vt 0.351899 0.788789
vt 0.406242 0.788789
vt 0.451012 0.788789
vt 0.495783 0.788789
vn 0.408243 0.408273 -0.816487
vn -0.666689 0.666639 -0.333344
vn 0.666644 0.666695 0.333322
vn -0.408253 0.408224 0.816507
vn 0.707107 0.000053 -0.707107
vn -0.707107 -0.000053 -0.707107
vn 0.707107 0.000053 0.707107
vn -0.707107 -0.000053 0.707107
vn 0.639890 -0.068922 -0.765370
vn -0.012287 -0.094347 -0.995464
vn -0.016511 -0.125319 -0.991979
vn 0.651994 -0.091013 -0.752742
vn 0.639473 -0.186804 -0.745774
vn -0.005786 -0.085686 -0.996305
vn 0.892869 0.355522 -0.276386
vn -0.011549 0.824772 -0.565348
vn 0.634775 0.083807 0.768139
vn 0.640440 0.111807 0.759827
vn -0.011603 0.135864 0.990660
vn -0.009247 0.103697 0.994566
vn -0.648255 -0.068729 -0.758315
vn -0.998650 0.005232 -0.051672
vn -0.998117 0.004047 -0.061204
vn -0.663932 -0.089542 -0.742413
vn 0.998136 0.003743 -0.060915
vn 0.998659 0.005201 -0.051518
vn -0.018757 -0.156602 -0.987484
vn 0.661284 -0.112206 -0.741696
vn -0.988222 -0.013504 -0.152429
vn -0.674826 -0.109896 -0.729749
vn -0.013083 0.164929 0.986219
vn 0.650777 0.145939 0.745112
vn 0.988232 -0.014001 -0.152321
vn 0.671796 -0.147732 -0.725855
vn -0.020164 -0.223026 -0.974604
vn 0.691402 -0.187123 -0.697817
vn -0.021629 -0.289790 -0.956846
vn -0.686265 -0.144431 -0.712867
vn -0.997467 -0.005328 -0.070929
vn -0.706199 -0.182797 -0.684009
vn -0.999855 0.016347 0.004820
vn -0.014407 0.225579 0.974119
vn 0.663772 0.188674 0.723746
vn -0.015229 0.289672 0.957005
vn 0.612328 0.249733 0.750125
vn 0.997471 -0.005701 -0.070852
vn 0.999856 0.016171 0.005245
vn 0.710332 -0.221707 -0.668038
vn -0.016007 -0.325319 -0.945469
vn -0.724808 -0.216632 -0.654006
vn -0.996576 0.006516 -0.082419
vn -0.651859 -0.183315 -0.735851
vn -0.896336 0.349152 -0.273266
vn -0.006368 0.744475 0.667620
vn -0.012843 0.377764 0.925813
vn 0.668321 0.410330 0.620465
vn 0.739603 0.258134 0.621574
vn 0.996528 0.006774 -0.082979
vn -0.675280 0.186504 0.713592
vn -0.627267 0.246483 0.738771
vn -0.648899 0.110956 0.752741
vn -0.661293 0.144623 0.736054
vn -0.640940 0.082900 0.763101
vn -0.747109 0.255067 0.613815
vn -0.678088 0.405569 0.612953
vn 0.333339 -0.666653 0.666677
vn -0.333328 -0.666680 -0.666656
vn 0.816517 -0.408197 -0.408258
vn -0.816476 -0.408299 0.408238
vn -0.620658 -0.001184 -0.784080
vn -0.000103 -0.001224 -0.999999
vn 0.005882 0.038627 -0.999236
vn -0.626438 0.026537 -0.779020
vn -0.639473 0.186804 -0.745774
vn 0.005786 0.085686 -0.996305
vn -0.892869 -0.355522 -0.276386
vn 0.011549 -0.824772 -0.565348
vn -0.628408 0.000729 0.777884
vn -0.630001 -0.041526 0.775483
vn 0.004891 -0.049059 0.998784
vn -0.000089 0.001206 0.999999
vn 0.620586 -0.000733 -0.784138
vn 0.999492 -0.000064 -0.031883
vn 0.999236 -0.008879 -0.038062
vn 0.630507 0.026857 -0.775719
vn -0.999238 -0.008836 -0.038007
vn -0.999492 -0.000024 -0.031884
vn 0.016433 0.123393 -0.992222
vn 0.018757 0.156602 -0.987484
vn -0.651896 0.090051 -0.752943
vn -0.661284 0.112206 -0.741696
vn 0.998134 -0.004199 -0.060925
vn 0.988222 0.013504 -0.152429
vn 0.663800 0.088594 -0.742644
vn 0.674826 0.109896 -0.729749
vn 0.011571 -0.133990 0.990915
vn -0.640434 -0.110841 0.759973
vn 0.013083 -0.164929 0.986219
vn -0.650777 -0.145939 0.745112
vn -0.998152 -0.003894 -0.060638
vn -0.988232 0.014001 -0.152321
vn -0.671796 0.147732 -0.725855
vn 0.020164 0.223026 -0.974604
vn -0.691402 0.187123 -0.697817
vn 0.021629 0.289790 -0.956846
vn 0.686265 0.144431 -0.712867
vn 0.997467 0.005328 -0.070929
vn 0.706199 0.182797 -0.684009
vn 0.999855 -0.016347 0.004820
vn 0.014407 -0.225579 0.974119
vn -0.663772 -0.188674 0.723746
vn 0.015229 -0.289672 0.957005
vn -0.612328 -0.249733 0.750125
vn -0.997471 0.005701 -0.070852
vn -0.999856 -0.016171 0.005245
vn -0.710332 0.221707 -0.668038
vn 0.016007 0.325319 -0.945469
vn 0.724808 0.216632 -0.654006
vn 0.996576 -0.006516 -0.082419
vn 0.651859 0.183315 -0.735851
vn 0.896336 -0.349152 -0.273266
vn 0.006368 -0.744475 0.667620
vn 0.012843 -0.377764 0.925813
vn -0.668321 -0.410330 0.620465
vn -0.739603 -0.258134 0.621574
vn -0.996528 -0.006774 -0.082979
vn 0.675280 -0.186504 0.713592
vn 0.627267 -0.246483 0.738771
vn 0.648881 -0.109999 0.752897
vn 0.661293 -0.144623 0.736054
vn 0.628348 0.001145 0.777932
vn 0.633297 -0.040986 0.772823
vn 0.747109 -0.255067 0.613815
vn 0.678088 -0.405569 0.612953
vn 0.647524 0.066967 -0.759097
vn 0.998681 -0.005434 -0.051050
vn 0.012018 0.091964 -0.995690
vn -0.639335 0.067128 -0.765993
vn -0.998689 -0.005401 -0.050901
vn -0.634588 -0.082008 0.768487
vn 0.009084 -0.101351 0.994809
vn 0.640647 -0.081121 0.763539
vn 0.999219 0.008742 -0.038546
vn 0.627062 -0.027836 -0.778472
vn -0.006175 -0.040320 -0.999168
vn -0.631332 -0.028144 -0.775002
vn -0.999216 0.008784 -0.038605
vn -0.633684 0.042268 0.772437
vn -0.005111 0.050723 0.998700
vn 0.630242 0.042818 0.775217
s 1
g bow_v02
usemtl lambert12SG
f 1/131/1 2/132/2 3/133/3
f 3/133/3 2/132/2 4/134/4
f 6/135/5 5/136/6 1/137/1
f 1/137/1 5/136/6 2/139/2
f 7/141/7 6/142/5 3/143/3
f 3/143/3 6/142/5 1/145/1
f 3/147/3 4/148/4 7/149/7
f 7/149/7 4/148/4 8/150/8
f 5/153/6 8/154/8 2/155/2
f 2/155/2 8/154/8 4/157/4
s 4
f 144/191/9 145/192/10 36/117/11 17/10/12
f 29/11/13 39/119/14 44/13/15
f 44/13/15 39/119/14 43/120/16
f 150/198/17 19/15/18 35/16/19 149/197/20
f 146/194/21 147/195/22 48/20/23 18/22/24
f 47/24/25 143/190/26 144/191/9 17/10/12
f 36/117/11 60/25/27 17/10/12
f 17/10/12 60/25/27 61/26/28
f 48/20/23 58/27/29 18/22/24
f 18/22/24 58/27/29 59/28/30
f 35/16/19 19/15/18 64/29/31
f 64/29/31 19/15/18 63/30/32
f 47/24/25 17/10/12 62/31/33
f 62/31/33 17/10/12 61/26/28
f 21/32/34 37/33/35 53/34/36
f 53/34/36 37/33/35 52/35/37
f 22/36/38 49/37/39 51/38/40
f 51/38/40 49/37/39 50/39/41
f 34/40/42 24/41/43 56/42/44
f 56/42/44 24/41/43 55/43/45
f 21/32/34 53/34/36 46/44/46
f 46/44/46 53/34/36 54/45/47
f 25/46/48 38/47/49 29/11/13
f 29/11/13 38/47/49 39/119/14
f 26/50/50 41/51/51 30/52/52
f 30/52/52 41/51/51 42/53/53
f 40/54/54 33/55/55 32/56/56
f 32/56/56 33/55/55 28/57/57
f 25/46/48 29/11/13 45/58/58
f 45/58/58 29/11/13 44/13/15
f 34/40/42 56/42/44 23/60/59
f 23/60/59 56/42/44 57/61/60
f 35/16/19 64/29/31 20/62/61
f 20/62/61 64/29/31 65/63/62
f 148/196/63 149/197/20 35/16/19 20/62/61
f 36/8/11 145/193/10 146/194/21 18/22/24
f 36/8/11 18/22/24 60/114/27
f 60/114/27 18/22/24 59/28/30
f 52/116/37 37/113/35 51/38/40
f 51/38/40 37/113/35 22/36/38
f 39/12/14 38/115/49 30/52/52
f 30/52/52 38/115/49 26/50/50
f 43/14/16 39/12/14 42/53/53
f 42/53/53 39/12/14 30/52/52
f 27/67/64 33/55/55 31/68/65
f 31/68/65 33/55/55 40/54/54
f 27/67/64 31/68/65 41/51/51
f 41/51/51 31/68/65 42/53/53
f 43/14/16 42/53/53 40/54/54
f 40/54/54 42/53/53 31/68/65
f 43/120/16 40/54/54 44/13/15
f 44/13/15 40/54/54 32/56/56
f 28/57/57 45/58/58 32/56/56
f 32/56/56 45/58/58 44/13/15
f 46/44/46 54/45/47 24/41/43
f 24/41/43 54/45/47 55/43/45
f 47/24/25 62/31/33 19/15/18
f 19/15/18 62/31/33 63/30/32
f 150/198/17 143/190/26 47/24/25 19/15/18
f 48/20/23 147/195/22 148/196/63 20/62/61
f 65/63/62 58/27/29 20/62/61
f 20/62/61 58/27/29 48/20/23
f 57/61/60 50/39/41 23/60/59
f 23/60/59 50/39/41 49/37/39
f 51/38/40 50/39/41 26/50/50
f 26/50/50 50/39/41 41/51/51
f 38/115/49 52/116/37 26/50/50
f 26/50/50 52/116/37 51/38/40
f 53/34/36 52/35/37 25/46/48
f 25/46/48 52/35/37 38/47/49
f 53/34/36 25/46/48 54/45/47
f 54/45/47 25/46/48 45/58/58
f 55/43/45 54/45/47 28/57/57
f 28/57/57 54/45/47 45/58/58
f 56/42/44 55/43/45 33/55/55
f 33/55/55 55/43/45 28/57/57
f 56/42/44 33/55/55 57/61/60
f 57/61/60 33/55/55 27/67/64
f 41/51/51 50/39/41 27/67/64
f 27/67/64 50/39/41 57/61/60
f 59/28/30 58/27/29 22/36/38
f 22/36/38 58/27/29 49/37/39
f 37/113/35 60/114/27 22/36/38
f 22/36/38 60/114/27 59/28/30
f 61/26/28 60/25/27 21/32/34
f 21/32/34 60/25/27 37/33/35
f 61/26/28 21/32/34 62/31/33
f 62/31/33 21/32/34 46/44/46
f 62/31/33 46/44/46 63/30/32
f 63/30/32 46/44/46 24/41/43
f 64/29/31 63/30/32 34/40/42
f 34/40/42 63/30/32 24/41/43
f 64/29/31 34/40/42 65/63/62
f 65/63/62 34/40/42 23/60/59
f 58/27/29 65/63/62 49/37/39
f 49/37/39 65/63/62 23/60/59
s 1
f 69/159/66 66/160/67 67/161/68
f 66/160/67 69/159/66 68/162/69
f 5/136/6 6/135/5 66/138/67
f 66/138/67 6/135/5 67/140/68
f 8/154/8 5/153/6 68/156/69
f 68/156/69 5/153/6 66/158/67
f 68/152/69 69/151/66 8/150/8
f 8/150/8 69/151/66 7/149/7
f 6/142/5 7/141/7 67/144/68
f 67/144/68 7/141/7 69/146/66
s 4
f 10/21/70 14/127/71 129/174/72 130/176/73
f 82/96/74 92/118/75 97/84/76
f 97/84/76 92/118/75 96/121/77
f 12/1/78 132/178/79 133/179/80 13/18/81
f 9/9/82 15/23/83 127/172/84 128/173/85
f 131/177/86 16/19/87 10/21/70 130/176/73
f 89/111/88 113/103/89 70/95/90
f 70/95/90 113/103/89 114/102/91
f 101/105/92 111/100/93 71/106/94
f 71/106/94 111/100/93 112/99/95
f 88/101/96 72/3/97 117/98/98
f 117/98/98 72/3/97 116/2/99
f 100/104/100 70/95/90 115/94/101
f 115/94/101 70/95/90 114/102/91
f 74/92/102 90/89/103 106/83/104
f 106/83/104 90/89/103 105/81/105
f 75/80/106 102/79/107 104/78/108
f 104/78/108 102/79/107 103/77/109
f 87/76/110 77/5/111 109/75/112
f 109/75/112 77/5/111 108/4/113
f 74/92/102 106/83/104 99/74/114
f 99/74/114 106/83/104 107/73/115
f 78/72/116 91/71/117 82/96/74
f 82/96/74 91/71/117 92/118/75
f 79/70/118 94/69/119 83/91/120
f 83/91/120 94/69/119 95/87/121
f 93/86/122 86/66/123 85/6/124
f 85/6/124 86/66/123 81/82/125
f 78/72/116 82/96/74 98/65/126
f 98/65/126 82/96/74 97/84/76
f 87/76/110 109/75/112 76/64/127
f 76/64/127 109/75/112 110/59/128
f 88/101/96 117/98/98 73/49/129
f 73/49/129 117/98/98 118/48/130
f 11/17/131 13/18/81 133/179/80 134/180/132
f 129/175/72 14/7/71 9/9/82 128/173/85
f 89/93/88 71/106/94 113/108/89
f 113/108/89 71/106/94 112/99/95
f 105/110/105 90/107/103 104/78/108
f 104/78/108 90/107/103 75/80/106
f 92/97/75 91/109/117 83/91/120
f 83/91/120 91/109/117 79/70/118
f 96/88/77 92/97/75 95/87/121
f 95/87/121 92/97/75 83/91/120
f 80/90/133 86/66/123 84/85/134
f 84/85/134 86/66/123 93/86/122
f 80/90/133 84/85/134 94/69/119
f 94/69/119 84/85/134 95/87/121
f 96/88/77 95/87/121 93/86/122
f 93/86/122 95/87/121 84/85/134
f 96/121/77 93/86/122 97/84/76
f 97/84/76 93/86/122 85/6/124
f 81/82/125 98/65/126 85/6/124
f 85/6/124 98/65/126 97/84/76
f 99/74/114 107/73/115 77/5/111
f 77/5/111 107/73/115 108/4/113
f 100/104/100 115/94/101 72/3/97
f 72/3/97 115/94/101 116/2/99
f 12/1/78 16/19/87 131/177/86 132/178/79
f 134/180/132 127/172/84 15/23/83 11/17/131
f 118/48/130 111/100/93 73/49/129
f 73/49/129 111/100/93 101/105/92
f 110/59/128 103/77/109 76/64/127
f 76/64/127 103/77/109 102/79/107
f 104/78/108 103/77/109 79/70/118
f 79/70/118 103/77/109 94/69/119
f 91/109/117 105/110/105 79/70/118
f 79/70/118 105/110/105 104/78/108
f 106/83/104 105/81/105 78/72/116
f 78/72/116 105/81/105 91/71/117
f 106/83/104 78/72/116 107/73/115
f 107/73/115 78/72/116 98/65/126
f 108/4/113 107/73/115 81/82/125
f 81/82/125 107/73/115 98/65/126
f 109/75/112 108/4/113 86/66/123
f 86/66/123 108/4/113 81/82/125
f 109/75/112 86/66/123 110/59/128
f 110/59/128 86/66/123 80/90/133
f 94/69/119 103/77/109 80/90/133
f 80/90/133 103/77/109 110/59/128
f 112/99/95 111/100/93 75/80/106
f 75/80/106 111/100/93 102/79/107
f 90/107/103 113/108/89 75/80/106
f 75/80/106 113/108/89 112/99/95
f 114/102/91 113/103/89 74/92/102
f 74/92/102 113/103/89 90/89/103
f 114/102/91 74/92/102 115/94/101
f 115/94/101 74/92/102 99/74/114
f 115/94/101 99/74/114 116/2/99
f 116/2/99 99/74/114 77/5/111
f 117/98/98 116/2/99 87/76/110
f 87/76/110 116/2/99 77/5/111
f 117/98/98 87/76/110 118/48/130
f 118/48/130 87/76/110 76/64/127
f 111/100/93 118/48/130 102/79/107
f 102/79/107 118/48/130 76/64/127
f 120/164/135 119/163/136 101/105/92 71/106/94
f 89/93/88 121/166/137 120/164/135 71/106/94
f 122/167/138 121/165/137 89/111/88 70/95/90
f 100/104/100 123/168/139 122/167/138 70/95/90
f 124/169/140 123/168/139 100/104/100 72/3/97
f 125/170/141 124/169/140 72/3/97 88/101/96
f 126/171/142 125/170/141 88/101/96 73/49/129
f 101/105/92 119/163/136 126/171/142 73/49/129
f 128/173/85 127/172/84 119/163/136 120/164/135
f 121/166/137 129/175/72 128/173/85 120/164/135
f 130/176/73 129/174/72 121/165/137 122/167/138
f 123/168/139 131/177/86 130/176/73 122/167/138
f 132/178/79 131/177/86 123/168/139 124/169/140
f 133/179/80 132/178/79 124/169/140 125/170/141
f 134/180/132 133/179/80 125/170/141 126/171/142
f 126/171/142 119/163/136 127/172/84 134/180/132
f 135/181/143 15/125/83 9/130/82 136/182/144
f 9/130/82 14/126/71 137/183/145 136/182/144
f 138/185/146 137/184/145 14/112/71 10/128/70
f 10/128/70 16/122/87 139/186/147 138/185/146
f 140/187/148 139/186/147 16/122/87 12/123/78
f 12/123/78 13/129/81 141/188/149 140/187/148
f 11/124/131 142/189/150 141/188/149 13/129/81
f 11/124/131 15/125/83 135/181/143 142/189/150
f 143/190/26 135/181/143 136/182/144 144/191/9
f 136/182/144 137/183/145 145/192/10 144/191/9
f 146/194/21 145/193/10 137/184/145 138/185/146
f 138/185/146 139/186/147 147/195/22 146/194/21
f 148/196/63 147/195/22 139/186/147 140/187/148
f 140/187/148 141/188/149 149/197/20 148/196/63
f 142/189/150 150/198/17 149/197/20 141/188/149
f 142/189/150 135/181/143 143/190/26 150/198/17
