# This file uses centimeters as units for non-parametric coordinates.

mtllib Branches_Small_01.mtl
g default
v -11.500501 2.256485 0.882725
v -11.214841 1.964401 1.220108
v -2.902749 0.530628 -0.292532
v -2.626857 0.600601 0.156694
v -2.635667 0.163532 -0.086058
v -11.207984 1.696526 0.797937
v 2.866441 -0.877153 -5.774470
v 3.142330 -0.807184 -5.325241
v 3.183837 -1.256416 -5.596798
v 9.995144 -0.189121 -8.571492
v -2.134088 1.252686 1.090780
v -1.805383 1.117695 0.695118
v -1.782642 1.563187 0.921078
v 3.249016 1.394978 2.786440
v 3.577719 1.259991 2.390776
v 3.646879 1.711311 2.653080
v 9.608574 0.428150 7.138052
v 9.761364 -1.178387 -2.423307
v 9.861767 -0.927040 -2.018224
v 3.180652 1.505915 1.314113
v 3.281059 1.757259 1.719195
v 3.052288 1.941126 1.367488
v 9.633007 -0.743172 -2.369931
v -4.211693 1.101624 1.388743
v -4.111283 1.352976 1.793822
v -4.393124 1.543085 1.451587
v -10.469486 0.930769 4.617019
v -8.906674 1.281487 6.232055
v -9.072567 1.156826 5.791274
v -3.244240 1.591221 0.546954
v -3.410130 1.466557 0.106177
v -3.226282 1.877407 0.191264
v -8.888722 1.567673 5.876365
v 4.022737 2.444851 -0.583619
v 3.856840 2.320190 -1.024400
v 4.090479 2.737278 -0.959981
v 10.073904 1.071758 -3.916623
v 9.886130 -1.842300 2.816451
v 9.935410 -1.357693 2.824996
v 3.277654 2.025261 0.397868
v 3.326932 2.509865 0.406417
v 3.229816 2.280502 0.021972
v 9.838296 -1.587055 2.440551
v -3.847800 1.102459 -1.388791
v -3.798516 1.587070 -1.380246
v -3.947089 1.363380 -1.780980
v -10.598160 3.105400 -1.567178
v 9.349276 0.065063 -5.098813
v 9.080613 0.315742 -5.418708
v 1.816882 1.281174 -2.596084
v 1.548222 1.531853 -2.915967
v 1.434794 1.109783 -2.778754
v 8.967183 -0.106323 -5.281495
v -2.705501 0.621811 3.228787
v -2.974160 0.872486 2.908892
v -3.129691 0.449265 3.080333
v -7.996677 2.758820 7.357655
vt 0.878997 0.059430
vt 0.842179 0.059473
vt 0.841006 0.357932
vt 0.880413 0.357588
vt 0.861150 0.059529
vt 0.861625 0.358216
vt 0.841773 0.585956
vt 0.880225 0.583798
vt 0.861694 0.585345
vt 0.859992 0.902375
vt 0.878997 0.059430
vt 0.842179 0.059473
vt 0.841006 0.357932
vt 0.880413 0.357588
vt 0.861150 0.059529
vt 0.861625 0.358216
vt 0.841773 0.585956
vt 0.880225 0.583798
vt 0.861694 0.585345
vt 0.859992 0.902375
vt 0.878997 0.059430
vt 0.842179 0.059473
vt 0.841006 0.357932
vt 0.880413 0.357588
vt 0.861150 0.059529
vt 0.861625 0.358216
vt 0.841773 0.585956
vt 0.880225 0.583798
vt 0.861694 0.585345
vt 0.859992 0.902375
vt 0.878997 0.059430
vt 0.842179 0.059473
vt 0.841006 0.357932
vt 0.880413 0.357588
vt 0.861150 0.059529
vt 0.861625 0.358216
vt 0.841773 0.585956
vt 0.880225 0.583798
vt 0.861694 0.585345
vt 0.859992 0.902375
vt 0.878997 0.059430
vt 0.842179 0.059473
vt 0.841006 0.357932
vt 0.880413 0.357588
vt 0.861150 0.059529
vt 0.861625 0.358216
vt 0.841773 0.585956
vt 0.880225 0.583798
vt 0.861694 0.585345
vt 0.859992 0.902375
vt 0.878997 0.059430
vt 0.842179 0.059473
vt 0.841006 0.357932
vt 0.880413 0.357588
vt 0.861150 0.059529
vt 0.861625 0.358216
vt 0.841773 0.585956
vt 0.880225 0.583798
vt 0.861694 0.585345
vt 0.859992 0.902375
vn 0.026546 0.500031 -0.865600
vn 0.122278 0.491269 0.862382
vn -0.219382 0.529556 -0.819416
vn 0.357608 0.431796 0.828051
vn 0.122278 0.491269 0.862382
vn -0.132822 -0.989029 -0.064655
vn 0.357608 0.431796 0.828051
vn -0.134291 -0.986352 0.095266
vn 0.026546 0.500031 -0.865600
vn -0.219382 0.529556 -0.819416
vn -0.132822 -0.989029 -0.064655
vn -0.134291 -0.986352 0.095266
vn 0.550846 0.590188 0.590124
vn -0.570047 0.345683 -0.745352
vn 0.550846 0.590188 0.590124
vn 0.041282 -0.988626 0.144618
vn -0.570047 0.345683 -0.745352
vn 0.041282 -0.988626 0.144618
vn 0.514006 -0.348201 -0.783935
vn 0.514006 -0.348201 -0.783935
vn 0.514006 -0.348201 -0.783935
vn 0.026546 0.500031 -0.865600
vn 0.154622 -0.325437 -0.932836
vn -0.132822 -0.989029 -0.064655
vn -0.122768 -0.892397 0.434230
vn 0.154622 -0.325437 -0.932836
vn 0.026546 0.500031 -0.865600
vn -0.013063 0.970817 0.239465
vn 0.122278 0.491269 0.862382
vn -0.132822 -0.989029 -0.064655
vn -0.122768 -0.892397 0.434230
vn 0.122278 0.491269 0.862382
vn -0.013063 0.970817 0.239465
vn -0.376612 -0.291043 0.879464
vn 0.262938 -0.641593 -0.720570
vn 0.262938 -0.641593 -0.720570
vn 0.129006 0.983830 -0.124245
vn -0.376612 -0.291043 0.879464
vn 0.129006 0.983830 -0.124245
vn 0.486673 0.619932 0.615495
vn 0.486673 0.619932 0.615495
vn 0.486673 0.619932 0.615495
vn -0.501009 -0.812225 -0.298800
vn 0.505782 0.040148 0.861727
vn -0.322848 -0.842858 -0.430534
vn 0.349696 0.068340 0.934367
vn 0.505782 0.040148 0.861727
vn -0.051048 0.766402 -0.640330
vn 0.349696 0.068340 0.934367
vn 0.011434 0.847970 -0.529921
vn -0.501009 -0.812225 -0.298800
vn -0.322848 -0.842858 -0.430534
vn -0.051048 0.766402 -0.640330
vn 0.011434 0.847970 -0.529921
vn 0.118779 0.023399 0.992645
vn 0.002344 -0.845313 -0.534266
vn 0.118779 0.023399 0.992645
vn -0.155791 0.862981 -0.480618
vn 0.002344 -0.845313 -0.534266
vn -0.155791 0.862981 -0.480618
vn -0.961748 -0.033026 -0.271937
vn -0.961748 -0.033026 -0.271937
vn -0.961748 -0.033026 -0.271937
vn 0.688515 -0.275764 0.670747
vn -0.516371 -0.656341 -0.550071
vn 0.525587 -0.233508 0.818066
vn -0.373162 -0.662486 -0.649509
vn -0.516371 -0.656341 -0.550071
vn -0.124447 0.989752 -0.070028
vn -0.373162 -0.662486 -0.649509
vn -0.206887 0.959225 -0.192578
vn 0.688515 -0.275764 0.670747
vn 0.525587 -0.233508 0.818066
vn -0.124447 0.989752 -0.070028
vn -0.206887 0.959225 -0.192578
vn -0.139367 -0.697463 -0.702939
vn 0.212690 -0.214849 0.953207
vn -0.139367 -0.697463 -0.702939
vn -0.049242 0.962027 -0.268475
vn 0.212690 -0.214849 0.953207
vn -0.049242 0.962027 -0.268475
vn 0.945903 0.321872 0.040808
vn 0.945903 0.321872 0.040808
vn 0.945903 0.321872 0.040808
vn -0.567319 -0.724062 0.392280
vn 0.283867 0.807952 0.516365
vn -0.372749 -0.833225 0.408405
vn 0.123847 0.867848 0.481146
vn 0.283867 0.807952 0.516365
vn 0.256738 -0.157611 -0.953543
vn 0.123847 0.867848 0.481146
vn 0.306156 -0.015125 -0.951861
vn -0.567319 -0.724062 0.392280
vn -0.372749 -0.833225 0.408405
vn 0.256738 -0.157611 -0.953543
vn 0.306156 -0.015125 -0.951861
vn -0.118485 0.870102 0.478418
vn -0.039449 -0.888583 0.457016
vn -0.118485 0.870102 0.478418
vn 0.138467 0.016953 -0.990222
vn -0.039449 -0.888583 0.457016
vn 0.138467 0.016953 -0.990222
vn -0.856086 -0.349972 -0.380311
vn -0.856086 -0.349972 -0.380311
vn -0.856086 -0.349972 -0.380311
vn 0.322668 0.053791 0.944983
vn -0.069310 0.799264 -0.596969
vn 0.512923 -0.025460 0.858057
vn -0.218558 0.830570 -0.512236
vn -0.069310 0.799264 -0.596969
vn -0.246362 -0.923990 -0.292486
vn -0.218558 0.830570 -0.512236
vn -0.305341 -0.857404 -0.414277
vn 0.322668 0.053791 0.944983
vn 0.512923 -0.025460 0.858057
vn -0.246362 -0.923990 -0.292486
vn -0.305341 -0.857404 -0.414277
vn -0.363204 0.874042 -0.322697
vn 0.767704 -0.075106 0.636388
vn -0.363204 0.874042 -0.322697
vn -0.443373 -0.841809 -0.307861
vn 0.767704 -0.075106 0.636388
vn -0.443373 -0.841809 -0.307861
vn -0.480326 -0.341889 0.807712
vn -0.480326 -0.341889 0.807712
vn -0.480326 -0.341889 0.807712
s 1
g polySurface14
usemtl lambert2SG
f 1/1/1 2/2/2 3/4/3
f 3/4/3 2/2/2 4/3/4
s 2
f 2/2/5 6/5/6 4/3/7
f 4/3/7 6/5/6 5/6/8
s 3
f 1/1/9 3/4/10 6/5/11
f 6/5/11 3/4/10 5/6/12
s 1
f 4/3/4 8/7/13 3/4/3
f 3/4/3 8/7/13 7/8/14
s 2
f 4/3/7 5/6/8 8/7/15
f 8/7/15 5/6/8 9/9/16
s 3
f 3/4/10 7/8/17 5/6/12
f 5/6/12 7/8/17 9/9/18
s 1
f 7/8/14 8/7/13 10/10/19
s 2
f 8/7/15 9/9/16 10/10/20
s 3
f 9/9/18 7/8/17 10/10/21
s 4
f 1/12/22 12/13/23 6/11/24
f 6/11/24 12/13/23 11/14/25
s 5
f 12/13/26 1/12/27 13/16/28
f 1/12/27 2/15/29 13/16/28
s 6
f 6/11/30 11/14/31 2/15/32
f 2/15/32 11/14/31 13/16/33
s 4
f 11/14/25 12/13/23 14/18/34
f 14/18/34 12/13/23 15/17/35
s 5
f 12/13/26 13/16/28 15/17/36
f 15/17/36 13/16/28 16/19/37
s 6
f 11/14/31 14/18/38 13/16/33
f 13/16/33 14/18/38 16/19/39
s 4
f 14/18/34 15/17/35 17/20/40
s 5
f 15/17/36 16/19/37 17/20/41
s 6
f 16/19/39 14/18/38 17/20/42
s 7
f 18/21/43 19/22/44 20/24/45
f 20/24/45 19/22/44 21/23/46
s 8
f 19/22/47 23/25/48 21/23/49
f 21/23/49 23/25/48 22/26/50
s 9
f 18/21/51 20/24/52 23/25/53
f 23/25/53 20/24/52 22/26/54
s 7
f 21/23/46 25/27/55 20/24/45
f 20/24/45 25/27/55 24/28/56
s 8
f 21/23/49 22/26/50 25/27/57
f 25/27/57 22/26/50 26/29/58
s 9
f 20/24/52 24/28/59 22/26/54
f 22/26/54 24/28/59 26/29/60
s 7
f 24/28/56 25/27/55 27/30/61
s 8
f 25/27/57 26/29/58 27/30/62
s 9
f 26/29/60 24/28/59 27/30/63
s 10
f 28/31/64 29/32/65 30/34/66
f 30/34/66 29/32/65 31/33/67
s 11
f 29/32/68 33/35/69 31/33/70
f 31/33/70 33/35/69 32/36/71
s 12
f 28/31/72 30/34/73 33/35/74
f 33/35/74 30/34/73 32/36/75
s 10
f 31/33/67 35/37/76 30/34/66
f 30/34/66 35/37/76 34/38/77
s 11
f 31/33/70 32/36/71 35/37/78
f 35/37/78 32/36/71 36/39/79
s 12
f 30/34/73 34/38/80 32/36/75
f 32/36/75 34/38/80 36/39/81
s 10
f 34/38/77 35/37/76 37/40/82
s 11
f 35/37/78 36/39/79 37/40/83
s 12
f 36/39/81 34/38/80 37/40/84
s 13
f 38/41/85 39/42/86 40/44/87
f 40/44/87 39/42/86 41/43/88
s 14
f 39/42/89 43/45/90 41/43/91
f 41/43/91 43/45/90 42/46/92
s 15
f 38/41/93 40/44/94 43/45/95
f 43/45/95 40/44/94 42/46/96
s 13
f 41/43/88 45/47/97 40/44/87
f 40/44/87 45/47/97 44/48/98
s 14
f 41/43/91 42/46/92 45/47/99
f 45/47/99 42/46/92 46/49/100
s 15
f 40/44/94 44/48/101 42/46/96
f 42/46/96 44/48/101 46/49/102
s 13
f 44/48/98 45/47/97 47/50/103
s 14
f 45/47/99 46/49/100 47/50/104
s 15
f 46/49/102 44/48/101 47/50/105
s 16
f 48/51/106 49/52/107 50/54/108
f 50/54/108 49/52/107 51/53/109
s 17
f 49/52/110 53/55/111 51/53/112
f 51/53/112 53/55/111 52/56/113
s 18
f 48/51/114 50/54/115 53/55/116
f 53/55/116 50/54/115 52/56/117
s 16
f 51/53/109 55/57/118 50/54/108
f 50/54/108 55/57/118 54/58/119
s 17
f 51/53/112 52/56/113 55/57/120
f 55/57/120 52/56/113 56/59/121
s 18
f 50/54/115 54/58/122 52/56/117
f 52/56/117 54/58/122 56/59/123
s 16
f 54/58/119 55/57/118 57/60/124
s 17
f 55/57/120 56/59/121 57/60/125
s 18
f 56/59/123 54/58/122 57/60/126
