# This file uses centimeters as units for non-parametric coordinates.

mtllib Branches_Large_01.mtl
g default
v -16.328885 7.512071 3.227756
v 10.228410 1.013394 -4.255210
v 17.638978 -2.825910 -6.985232
v -12.689584 5.998639 -1.124875
v 2.649822 2.314631 -2.293378
v 10.493112 -1.236393 -7.145261
v 11.853978 0.508865 -6.345458
v 16.856633 -1.729717 -6.060454
v 16.946218 -2.291749 -7.764212
v -14.329225 5.230053 3.050657
v -12.282866 7.149198 0.822841
v -15.549287 7.057115 4.133666
v -13.525794 3.642998 1.919627
v -18.405764 6.559566 2.530172
v -12.592810 4.511500 -1.380173
v -14.226061 8.479916 2.558013
v -10.305175 5.767439 -0.996861
v -3.481529 0.645589 -1.575301
v 4.356851 1.228584 -2.612546
v -2.490646 -0.391809 -3.783093
v 6.026165 -0.220669 -6.640492
v 0.598829 2.715504 -2.700974
v 7.534851 1.291705 -5.985736
v 15.613458 -2.123830 -5.653008
v 15.655214 -2.714060 -7.526238
v 16.397550 -1.240526 -6.922338
v -16.794273 4.351098 2.569774
v -11.570448 1.715789 -0.233487
v -6.555033 1.798928 -3.709214
v -8.760676 3.874692 -2.981913
v 6.276930 1.736810 -3.189118
v -1.123819 -0.958782 -3.143723
v 10.180425 0.018649 -3.965775
v 7.918192 -1.643194 -4.579566
v 8.908250 -1.867282 -6.067945
v 11.403115 0.786517 -5.396930
v 11.664323 -0.231839 -7.399609
v 14.288480 -0.496859 -5.256139
v 17.757814 -2.495432 -6.651732
v 17.762616 -2.728626 -7.417125
v -17.315965 5.874313 3.877567
v -5.105102 3.624121 -0.219922
v -9.974765 5.897785 0.511071
v -14.832586 8.135209 1.153472
v 1.584709 -0.494239 -4.989239
v 4.771116 1.962065 -4.294602
v -2.414227 2.257760 -4.460616
v 4.849725 1.783082 -5.243823
v 14.732301 -0.439921 -6.694320
v 16.960160 -1.455256 -6.551723
v 17.019006 -1.749265 -7.422388
v -17.712711 7.700912 4.814246
v -13.131423 7.107998 3.274875
v -16.453900 9.071787 4.901958
v -15.434776 3.888959 2.422677
v -10.382175 1.569643 -0.051881
v -9.219657 2.502426 0.341813
v -16.138228 5.799960 0.922687
v -13.623151 3.088359 0.083179
v -17.618284 5.236875 2.492503
v -10.131762 3.015342 -2.407246
v -12.961408 7.831249 2.645457
v -15.842181 8.972549 2.427303
v -16.090125 9.512686 4.231075
v -8.696457 4.914443 -1.230204
v -8.447021 4.307310 -2.552892
v -11.781911 6.172309 -0.991881
v -1.542820 -0.515469 -2.528037
v 4.831392 -0.566875 -3.435363
v 7.177300 0.638718 -3.294974
v 0.636519 1.266077 -1.985719
v 3.920337 -0.429912 -5.835917
v 2.748496 2.342300 -3.420586
v -3.622813 2.991332 -3.400719
v -4.102533 3.503270 -1.961507
v 8.051171 1.467520 -5.200457
v 6.570125 0.825753 -6.649609
v 1.370764 1.619910 -5.555129
v 12.303880 -2.501019 -5.535300
v 16.311338 -3.009239 -6.404997
v 13.407079 -1.258575 -4.956967
v 13.532754 -2.082006 -7.434995
v 16.282273 -3.134726 -7.197821
v 12.445234 -2.650942 -6.527743
v 14.589143 -0.320906 -5.915768
v 17.867051 -2.217031 -7.099541
v 14.892965 -1.234008 -7.674890
v 15.213670 -1.346667 3.155160
v -12.867150 1.478435 -1.825467
v -21.734408 1.661955 -1.430163
v 10.186555 1.479868 4.563400
v -5.135033 0.505598 0.082484
v -14.844260 2.635173 1.096133
v -15.080483 2.960251 -1.248816
v -20.331487 1.498502 -2.286402
v -21.116320 2.611198 -1.084679
v 12.449298 -2.469698 3.889549
v 10.851859 0.498695 2.564771
v 14.587836 -2.356978 2.645969
v 10.763990 -2.410078 5.192664
v 16.440131 -1.315925 5.235692
v 9.403964 0.855556 5.718633
v 13.594413 -0.221606 1.724056
v 8.034255 1.261380 3.466758
v -0.267199 -1.088439 4.027621
v -7.177416 0.174289 0.167178
v -2.181413 0.186102 5.368263
v -10.361292 2.748694 2.361360
v -3.280381 1.057064 1.025882
v -10.865283 3.065214 0.182246
v -19.295895 0.924220 -1.575114
v -20.097369 2.162770 -0.245360
v -19.960027 2.493805 -1.985190
v 14.106706 -2.582372 6.005546
v 7.644019 -1.675721 6.665628
v 2.325813 1.327432 5.791059
v 5.335223 1.870875 5.038917
v -8.804761 0.960333 -0.884530
v -3.442631 -0.659074 4.775771
v -13.165094 0.673892 -1.222672
v -12.052381 0.232537 1.424243
v -13.424609 1.362596 1.821204
v -14.306939 2.317635 -1.690285
v -15.517052 3.424944 -0.096909
v -17.338761 1.498716 -2.282738
v -21.607299 1.569676 -1.893937
v -21.920670 2.080141 -1.350209
v 15.566802 -2.824002 4.519702
v 2.785868 -0.557647 2.018293
v 8.214884 0.072743 2.462911
v 13.593835 0.757090 2.971482
v -6.128940 1.173135 3.983690
v -7.694253 2.002522 0.255367
v -1.317046 2.250289 3.742553
v -8.100064 2.698378 0.813174
v -18.099801 2.740825 -1.839076
v -20.441712 2.066317 -2.295522
v -20.857102 2.631204 -1.683064
v 16.943189 -2.582113 2.933784
v 12.253488 -1.588255 1.814113
v 16.442369 -1.871828 1.262502
v 12.679574 -2.708745 5.728198
v 6.590810 -1.900880 6.083499
v 6.073809 -1.695271 4.627609
v 13.689410 -0.377794 5.436038
v 10.109597 -1.183427 6.548572
v 15.181430 -2.024374 5.816520
v 6.332687 0.892736 6.069568
v 12.236299 -0.650751 1.514177
v 15.182851 0.152922 2.245439
v 16.124791 -1.057312 1.090093
v 6.200009 0.988801 3.389730
v 5.360971 1.757695 4.355888
v 9.500852 1.473691 3.914705
v -2.718774 -0.928748 4.362119
v -8.577498 -0.144906 1.635232
v -10.086425 0.436748 -0.489817
v -3.728006 -0.360562 1.705390
v -8.382197 1.938614 3.177545
v -5.520254 1.467535 0.568042
v 0.343697 1.765395 3.297384
v 1.376508 0.843168 2.458850
v -11.027426 2.509921 -0.592202
v -10.399085 3.351293 1.333137
v -5.205227 2.839166 2.837451
v -16.521689 0.585743 0.307643
v -20.488263 1.061001 -0.914273
v -16.805192 0.810744 -1.433839
v -17.945165 2.425685 0.320674
v -20.734059 1.654984 -0.418061
v -16.982137 1.334762 0.834064
v -17.709712 2.153765 -2.236804
v -21.708897 2.103305 -1.930197
v -18.845696 3.116517 -0.861197
vt 0.821043 0.033163
vt 0.872013 0.110356
vt 0.837954 0.084693
vt 0.863326 0.163814
vt 0.837365 0.126324
vt 0.845392 0.302684
vt 0.824592 0.158946
vt 0.796221 0.080574
vt 0.895308 0.142003
vt 0.892449 0.169511
vt 0.885108 0.199900
vt 0.883168 0.266336
vt 0.905754 0.264831
vt 0.911633 0.250111
vt 0.920514 0.122642
vt 0.948123 0.078325
vt 0.938624 0.155716
vt 0.897082 0.139158
vt 0.907414 0.125288
vt 0.921584 0.213056
vt 0.889063 0.039622
vt 0.962643 0.176448
vt 0.952980 0.222630
vt 0.791478 0.291959
vt 0.830878 0.374611
vt 0.790160 0.347761
vt 0.780310 0.297611
vt 0.769263 0.219923
vt 0.778362 0.201080
vt 0.944311 0.321976
vt 0.949635 0.276665
vt 0.819149 0.226984
vt 0.824880 0.162055
vt 0.800497 0.184970
vt 0.811743 0.144149
vt 0.787013 0.136569
vt 0.776013 0.065788
vt 0.792459 0.107249
vt 0.801865 0.151594
vt 0.812984 0.051680
vt 0.838520 0.084189
vt 0.825549 0.091102
vt 0.834509 0.166089
vt 0.801568 0.109103
vt 0.822069 0.329437
vt 0.805027 0.263362
vt 0.797238 0.228168
vt 0.829930 0.347497
vt 0.799951 0.284624
vt 0.788099 0.207468
vt 0.832537 0.331890
vt 0.912120 0.411793
vt 0.863327 0.521927
vt 0.860853 0.471394
vt 0.894449 0.395867
vt 0.852538 0.398967
vt 0.884597 0.361142
vt 0.825856 0.531348
vt 0.828275 0.484073
vt 0.833493 0.443451
vt 0.808776 0.517529
vt 0.817088 0.461397
vt 0.826372 0.411099
vt 0.962072 0.363438
vt 0.937032 0.455133
vt 0.929475 0.396742
vt 0.910232 0.525411
vt 0.821686 0.407640
vt 0.856861 0.419415
vt 0.845168 0.435081
vt 0.894630 0.477415
vt 0.881933 0.487798
vt 0.930359 0.535556
vt 0.915446 0.544559
vt 0.925693 0.559067
vt 0.944611 0.489006
vt 0.953092 0.518979
vt 0.942597 0.582295
vt 0.856106 0.469770
vt 0.860562 0.528991
vt 0.832382 0.461468
vt 0.834892 0.428062
vt 0.834681 0.394645
vt 0.851406 0.416585
vt 0.863477 0.375610
vt 0.871224 0.393330
vt 0.881232 0.416795
vt 0.849758 0.554305
vt 0.835012 0.510322
vt 0.839418 0.569653
vt 0.826816 0.528319
vt 0.910283 0.473119
vt 0.892117 0.440848
vt 0.919301 0.469834
vt 0.819907 0.472032
vt 0.942195 0.520538
vt 0.841118 0.637825
vt 0.828819 0.617671
vt 0.826208 0.580889
vt 0.853848 0.584089
vt 0.833092 0.652691
vt 0.825959 0.649279
vt 0.817400 0.628682
vt 0.811071 0.583388
vt 0.949315 0.576538
vt 0.934687 0.583974
vt 0.958567 0.613863
vt 0.948357 0.614686
vt 0.982363 0.015118
vt 0.992592 0.014954
vt 0.998008 0.023851
vt 0.986294 0.026607
vt 0.925287 0.655749
vt 0.928445 0.670638
vt 0.917987 0.680509
vt 0.915723 0.663375
vt 0.907370 0.601283
vt 0.918460 0.609512
vt 0.933590 0.625874
vt 0.906736 0.660710
vt 0.872033 0.592568
vt 0.862151 0.601357
vt 0.878743 0.635677
vt 0.869896 0.640149
vt 0.860725 0.636039
vt 0.852020 0.610805
vt 0.997674 0.004931
vt 0.985850 0.001380
vt 0.963114 0.625612
vt 0.965563 0.603309
vt 0.970033 0.615950
vt 0.859333 0.650294
vt 0.870697 0.659354
vt 0.878907 0.655238
vt 0.958996 0.560038
vt 0.966204 0.587345
vt 0.821043 0.033163
vt 0.872013 0.110356
vt 0.837954 0.084693
vt 0.863326 0.163814
vt 0.837365 0.126324
vt 0.845392 0.302684
vt 0.824592 0.158946
vt 0.796221 0.080574
vt 0.895308 0.142003
vt 0.892449 0.169511
vt 0.885108 0.199900
vt 0.883168 0.266336
vt 0.905754 0.264831
vt 0.911633 0.250111
vt 0.920514 0.122642
vt 0.948123 0.078325
vt 0.938624 0.155716
vt 0.897082 0.139158
vt 0.907414 0.125288
vt 0.921584 0.213056
vt 0.889063 0.039622
vt 0.962643 0.176448
vt 0.952980 0.222630
vt 0.791478 0.291959
vt 0.830878 0.374611
vt 0.790160 0.347761
vt 0.780310 0.297611
vt 0.769263 0.219923
vt 0.778362 0.201080
vt 0.944311 0.321976
vt 0.949635 0.276665
vt 0.819149 0.226984
vt 0.824880 0.162055
vt 0.800497 0.184970
vt 0.811743 0.144149
vt 0.787013 0.136569
vt 0.776013 0.065788
vt 0.792459 0.107249
vt 0.801865 0.151594
vt 0.812984 0.051680
vt 0.838520 0.084189
vt 0.825549 0.091102
vt 0.834509 0.166089
vt 0.801568 0.109103
vt 0.822069 0.329437
vt 0.805027 0.263362
vt 0.797238 0.228168
vt 0.829930 0.347497
vt 0.799951 0.284624
vt 0.788099 0.207468
vt 0.832537 0.331890
vt 0.912120 0.411793
vt 0.863327 0.521927
vt 0.860853 0.471394
vt 0.894449 0.395867
vt 0.852538 0.398967
vt 0.884597 0.361142
vt 0.825856 0.531348
vt 0.828275 0.484073
vt 0.833493 0.443451
vt 0.808776 0.517529
vt 0.817088 0.461397
vt 0.826372 0.411099
vt 0.962072 0.363438
vt 0.937032 0.455133
vt 0.929475 0.396742
vt 0.910232 0.525411
vt 0.821686 0.407640
vt 0.856861 0.419415
vt 0.845168 0.435081
vt 0.894630 0.477415
vt 0.881933 0.487798
vt 0.930359 0.535556
vt 0.915446 0.544559
vt 0.925693 0.559067
vt 0.944611 0.489006
vt 0.953092 0.518979
vt 0.942597 0.582295
vt 0.856106 0.469770
vt 0.860562 0.528991
vt 0.832382 0.461468
vt 0.834892 0.428062
vt 0.834681 0.394645
vt 0.851406 0.416585
vt 0.863477 0.375610
vt 0.871224 0.393330
vt 0.881232 0.416795
vt 0.849758 0.554305
vt 0.835012 0.510322
vt 0.839418 0.569653
vt 0.826816 0.528319
vt 0.910283 0.473119
vt 0.892117 0.440848
vt 0.919301 0.469834
vt 0.819907 0.472032
vt 0.942195 0.520538
vt 0.841118 0.637825
vt 0.828819 0.617671
vt 0.826208 0.580889
vt 0.853848 0.584089
vt 0.833092 0.652691
vt 0.825959 0.649279
vt 0.817400 0.628682
vt 0.811071 0.583388
vt 0.949315 0.576538
vt 0.934687 0.583974
vt 0.958567 0.613863
vt 0.948357 0.614686
vt 0.982363 0.015118
vt 0.992592 0.014954
vt 0.998008 0.023851
vt 0.986294 0.026607
vt 0.925287 0.655749
vt 0.928445 0.670638
vt 0.917987 0.680509
vt 0.915723 0.663375
vt 0.907370 0.601283
vt 0.918460 0.609512
vt 0.933590 0.625874
vt 0.906736 0.660710
vt 0.872033 0.592568
vt 0.862151 0.601357
vt 0.878743 0.635677
vt 0.869896 0.640149
vt 0.860725 0.636039
vt 0.852020 0.610805
vt 0.997674 0.004931
vt 0.985850 0.001380
vt 0.963114 0.625612
vt 0.965563 0.603309
vt 0.970033 0.615950
vt 0.859333 0.650294
vt 0.870697 0.659354
vt 0.878907 0.655238
vt 0.958996 0.560038
vt 0.966204 0.587345
vn -0.687828 0.430403 -0.584504
vn -0.224688 -0.517398 0.825721
vn -0.063005 -0.231200 0.970864
vn 0.238423 -0.373625 0.896415
vn 0.244797 -0.312017 0.917998
vn 0.366246 0.168267 0.915178
vn 0.439080 0.022229 0.898173
vn 0.266132 0.167941 0.949194
vn -0.702161 -0.684535 -0.195916
vn -0.074291 -0.736511 0.672334
vn 0.192303 -0.486246 0.852399
vn 0.183816 -0.456954 0.870290
vn 0.013532 -0.743381 0.668731
vn -0.430863 -0.834639 -0.343124
vn -0.810349 0.125097 -0.572438
vn -0.576061 0.148249 -0.803851
vn -0.757893 -0.510007 -0.406805
vn -0.578954 -0.516947 -0.630538
vn -0.479676 0.374764 -0.793387
vn -0.530993 -0.053878 -0.845662
vn -0.183416 0.317686 -0.930287
vn -0.145619 0.277954 -0.949493
vn -0.362782 -0.536390 -0.762020
vn -0.449556 -0.330028 -0.830049
vn 0.488212 0.868585 0.084913
vn 0.539027 0.821878 0.184300
vn 0.364576 0.887104 -0.283074
vn 0.355705 0.904653 -0.234685
vn -0.295282 0.616151 -0.730183
vn -0.164870 0.880943 -0.443574
vn 0.340393 0.815803 0.467545
vn 0.210346 0.968434 -0.133757
vn 0.327283 0.926514 -0.185630
vn 0.373366 0.875831 -0.305806
vn 0.118107 0.905456 -0.407676
vn 0.154955 0.859200 -0.487612
vn 0.013738 0.757160 -0.653085
vn -0.140842 -0.989404 -0.035263
vn -0.036419 -0.880081 0.473425
vn 0.115930 -0.531669 0.838981
vn 0.064417 -0.628889 0.774822
vn 0.172801 -0.306432 0.936077
vn 0.155427 -0.398887 0.903732
vn 0.181485 -0.256883 0.949249
vn 0.190546 -0.245520 0.950480
vn 0.189048 -0.220077 0.956989
vn 0.305487 0.752943 0.582885
vn 0.267441 0.844355 0.464263
vn 0.277011 0.383299 0.881106
vn -0.231357 -0.673025 -0.702504
vn -0.310521 -0.649784 -0.693799
vn -0.206539 0.413898 -0.886583
vn -0.283028 -0.659680 -0.696216
vn -0.094231 0.412935 -0.905873
vn -0.227672 -0.340338 -0.912324
vn 0.007094 0.423255 -0.905983
vn -0.190440 -0.335942 -0.922429
vn -0.231842 -0.878471 -0.417777
vn 0.107706 0.977017 -0.183947
vn 0.107781 0.959205 -0.261362
vn 0.147477 0.985004 -0.089541
vn 0.272533 0.962090 0.010410
vn 0.171488 0.982384 -0.074254
vn 0.179103 0.876566 -0.446715
vn 0.082762 0.853621 -0.514277
vn 0.024270 0.901051 -0.433033
vn 0.088686 -0.836577 0.540623
vn 0.197879 -0.347046 0.916735
vn 0.185238 -0.279794 0.942020
vn -0.005720 -0.765164 0.643811
vn 0.404666 -0.898797 0.168554
vn 0.635540 -0.141072 0.759070
vn 0.497253 0.168026 0.851180
vn 0.408378 0.501715 0.762568
vn 0.059078 0.358267 -0.931748
vn -0.175562 -0.387338 -0.905068
vn 0.112395 -0.150054 -0.982268
vn -0.153226 -0.475030 -0.866527
vn 0.484710 -0.567151 -0.665880
vn -0.051711 -0.966769 -0.250365
vn -0.210279 -0.923575 -0.320614
vn 0.398673 0.905338 0.146368
vn 0.568242 0.796754 0.205632
vn 0.364856 0.862344 -0.351060
vn 0.271993 0.868135 -0.415165
vn 0.822861 0.537519 -0.184320
vn 0.409407 0.705429 -0.578581
vn 0.616747 0.719669 0.318903
vn 0.203780 -0.975691 0.080633
vn 0.222576 -0.935062 -0.275897
vn -0.118471 -0.950371 -0.287679
vn -0.092408 -0.933838 -0.345553
vn 0.001967 -0.662435 -0.749117
vn -0.126757 -0.729258 -0.672396
vn 0.097892 -0.691643 -0.715575
vn 0.269719 -0.225191 0.936237
vn -0.059831 -0.969527 0.237567
vn -0.137476 -0.977087 -0.162487
vn -0.113020 -0.975648 -0.187981
vn -0.139821 -0.969667 0.200488
vn -0.068228 -0.184663 0.980431
vn 0.598843 0.538256 0.593016
vn 0.342352 0.745059 0.572436
vn 0.333431 0.046750 0.941615
vn 0.114461 0.229939 0.966451
vn 0.356171 0.863589 0.356871
vn 0.207539 0.667286 0.715302
vn 0.038211 0.947692 0.316891
vn -0.016370 0.941752 0.335909
vn -0.116882 0.329910 0.936749
vn 0.025941 0.500844 0.865149
vn -0.037655 0.418303 -0.907527
vn -0.074132 0.310182 -0.947782
vn -0.022967 0.732958 -0.679886
vn 0.005228 0.702535 -0.711630
vn 0.314256 0.947371 0.061088
vn 0.389763 0.858429 -0.333444
vn 0.172691 0.070193 -0.982472
vn 0.185358 0.653232 -0.734119
vn 0.052353 0.673810 -0.737048
vn -0.041485 0.745596 -0.665105
vn 0.164437 0.844602 -0.509518
vn 0.091414 0.885399 -0.455755
vn 0.126191 0.964596 -0.231582
vn -0.300404 -0.524147 0.796886
vn -0.206761 -0.884331 0.418579
vn -0.093873 -0.991922 -0.085319
vn -0.107259 -0.993372 0.041331
vn -0.022735 -0.946299 -0.322493
vn -0.055066 -0.971210 -0.231773
vn -0.005997 -0.929501 -0.368772
vn -0.008776 -0.924106 -0.382035
vn 0.004914 -0.915316 -0.402706
vn 0.208137 -0.060869 -0.976204
vn 0.246962 0.088267 -0.964997
vn 0.159789 -0.514855 -0.842254
vn -0.271635 0.205318 0.940244
vn -0.190932 0.210433 0.958782
vn 0.110313 0.964951 0.238120
vn -0.219556 0.207137 0.953357
vn 0.007290 0.981319 0.192249
vn -0.193140 0.565133 0.802074
vn -0.076280 0.987985 0.134414
vn -0.226336 0.576270 0.785293
vn -0.279401 -0.145593 0.949072
vn 0.264257 0.698839 -0.664675
vn 0.235671 0.753127 -0.614214
vn 0.258822 0.625291 -0.736222
vn 0.168063 0.530578 -0.830808
vn 0.241075 0.611338 -0.753756
vn 0.088864 0.861355 -0.500170
vn 0.144412 0.903829 -0.402789
vn 0.237046 0.862427 -0.447245
vn -0.278765 -0.914796 0.292299
vn -0.066694 -0.952720 -0.296438
vn -0.020782 -0.936261 -0.350689
vn -0.139009 -0.961305 0.237845
vn -0.680019 -0.638291 0.360775
vn -0.403121 -0.703421 -0.585400
vn -0.129145 -0.608419 -0.783037
vn 0.063030 -0.349353 -0.934869
vn -0.155488 0.973504 0.167671
vn -0.255956 0.533296 0.806277
vn -0.427610 0.732111 0.530249
vn -0.301420 0.452550 0.839252
vn -0.838289 0.239785 0.489668
vn -0.426821 -0.332330 0.841059
vn -0.290454 -0.251211 0.923325
vn 0.072050 0.387112 -0.919214
vn -0.104135 0.278694 -0.954718
vn -0.052062 0.775546 -0.629140
vn 0.013405 0.831219 -0.555784
vn -0.539283 0.459573 -0.705668
vn -0.218141 0.877085 -0.427945
s 1
g polySurface31
usemtl lambert2SG
f 1/1/1 41/2/2 52/3/3
f 41/2/2 10/4/4 12/5/5 52/3/3
f 12/5/5 10/4/4 42/6/6 53/7/7
f 1/1/1 52/3/3 54/8/8
f 52/3/3 12/5/5 53/7/7 54/8/8
f 41/2/2 1/1/1 27/9/9 55/10/10
f 13/11/11 10/4/4 41/2/2 55/10/10
f 57/12/12 13/11/11 55/10/10 56/13/13
f 55/10/10 27/9/9 28/14/14 56/13/13
f 42/6/6 10/4/4 13/11/11 57/12/12
f 14/15/15 1/16/1 58/17/16
f 28/14/14 27/18/9 60/19/17 59/20/18
f 60/19/17 14/15/15 58/17/16 59/20/18
f 27/18/9 1/21/1 60/19/17
f 1/21/1 14/15/15 60/19/17
f 58/17/16 1/16/1 4/22/19 15/23/20
f 30/24/21 47/25/22 29/26/23 61/27/24
f 15/28/20 4/29/19 30/24/21 61/27/24
f 29/30/23 28/14/14 59/20/18 61/31/24
f 59/20/18 58/17/16 15/23/20 61/31/24
f 53/7/7 42/6/6 43/32/25 62/33/26
f 43/32/25 11/34/27 16/35/28 62/33/26
f 44/36/29 1/37/1 63/38/30
f 16/39/28 11/34/27 44/36/29 63/38/30
f 1/40/1 54/41/8 64/42/31
f 54/41/8 53/43/7 62/33/26 64/42/31
f 62/33/26 16/35/28 63/44/30 64/42/31
f 63/44/30 1/40/1 64/42/31
f 43/32/25 42/6/6 75/45/32 65/46/33
f 17/47/34 11/34/27 43/32/25 65/46/33
f 74/48/35 47/25/22 30/24/21 66/49/36
f 30/24/21 4/29/19 67/50/37 66/49/36
f 67/50/37 17/47/34 65/46/33 66/49/36
f 65/46/33 75/51/32 74/48/35 66/49/36
f 4/29/19 1/37/1 44/36/29 67/50/37
f 44/36/29 11/34/27 17/47/34 67/50/37
f 32/52/38 34/53/39 69/54/40 68/55/41
f 69/54/40 71/56/42 18/57/43 68/55/41
f 71/56/42 42/6/6 57/12/12 18/57/43
f 56/13/13 28/14/14 32/52/38 68/55/41
f 18/57/43 57/12/12 56/13/13 68/55/41
f 34/53/39 33/58/44 70/59/45 69/54/40
f 70/59/45 19/60/46 71/56/42 69/54/40
f 33/58/44 2/61/47 31/62/48 70/59/45
f 31/62/48 5/63/49 19/60/46 70/59/45
f 19/60/46 5/63/49 42/6/6 71/56/42
f 29/30/23 47/64/22 45/65/50 20/66/51
f 45/65/50 34/67/39 32/52/38 20/66/51
f 32/52/38 28/14/14 29/30/23 20/66/51
f 45/68/50 47/25/22 78/69/52 72/70/53
f 78/69/52 77/71/54 21/72/55 72/70/53
f 77/71/54 37/73/56 6/74/57 21/72/55
f 35/75/58 34/67/39 45/65/50 72/76/53
f 21/77/55 6/78/57 35/75/58 72/76/53
f 31/79/48 2/80/47 46/81/59 73/82/60
f 22/83/61 5/84/49 31/79/48 73/82/60
f 75/51/32 22/85/61 73/86/60 74/48/35
f 73/86/60 46/87/59 47/25/22 74/48/35
f 42/6/6 5/84/49 22/83/61 75/45/32
f 46/81/59 2/80/47 36/88/62 76/89/63
f 36/88/62 7/90/64 23/91/65 76/89/63
f 23/92/65 48/93/66 76/94/63
f 48/95/66 46/81/59 76/89/63
f 23/92/65 7/96/64 37/73/56 77/71/54
f 47/25/22 46/87/59 48/93/66 78/69/52
f 48/93/66 23/92/65 77/71/54 78/69/52
f 80/97/67 24/98/68 81/99/69 79/100/70
f 81/99/69 33/58/44 34/53/39 79/100/70
f 80/97/67 3/101/71 39/102/72
f 39/102/72 8/103/73 24/98/68 80/97/67
f 38/104/74 2/61/47 33/58/44 81/99/69
f 24/98/68 8/103/73 38/104/74 81/99/69
f 6/74/57 37/73/56 87/105/75 82/106/76
f 87/105/75 9/107/77 25/108/78 82/106/76
f 40/109/79 3/110/71 80/111/67 83/112/80
f 25/113/78 9/114/77 40/115/79 83/116/80
f 79/117/70 34/67/39 35/75/58 84/118/81
f 35/75/58 6/78/57 82/119/76 84/118/81
f 82/119/76 25/113/78 83/116/80 84/118/81
f 83/116/80 80/120/67 79/117/70 84/118/81
f 36/88/62 2/80/47 38/121/74 85/122/82
f 38/121/74 8/123/73 50/124/83 85/122/82
f 50/124/83 26/125/84 49/126/85 85/122/82
f 49/126/85 7/90/64 36/88/62 85/122/82
f 39/127/72 3/110/71 40/109/79 86/128/86
f 40/129/79 9/107/77 51/130/87 86/131/86
f 51/132/87 26/125/84 50/124/83 86/133/86
f 50/124/83 8/123/73 39/134/72 86/133/86
f 37/73/56 7/96/64 49/135/85 87/105/75
f 49/135/85 26/136/84 51/130/87 87/105/75
f 51/130/87 9/107/77 87/105/75
s 7
f 88/137/88 128/138/89 139/139/90
f 128/138/89 97/140/91 99/141/92 139/139/90
f 99/141/92 97/140/91 129/142/93 140/143/94
f 88/137/88 139/139/90 141/144/95
f 139/139/90 99/141/92 140/143/94 141/144/95
f 128/138/89 88/137/88 114/145/96 142/146/97
f 100/147/98 97/140/91 128/138/89 142/146/97
f 144/148/99 100/147/98 142/146/97 143/149/100
f 142/146/97 114/145/96 115/150/101 143/149/100
f 129/142/93 97/140/91 100/147/98 144/148/99
f 101/151/102 88/152/88 145/153/103
f 115/150/101 114/154/96 147/155/104 146/156/105
f 147/155/104 101/151/102 145/153/103 146/156/105
f 114/154/96 88/157/88 147/155/104
f 88/157/88 101/151/102 147/155/104
f 145/153/103 88/152/88 91/158/106 102/159/107
f 117/160/108 134/161/109 116/162/110 148/163/111
f 102/164/107 91/165/106 117/160/108 148/163/111
f 116/166/110 115/150/101 146/156/105 148/167/111
f 146/156/105 145/153/103 102/159/107 148/167/111
f 140/143/94 129/142/93 130/168/112 149/169/113
f 130/168/112 98/170/114 103/171/115 149/169/113
f 131/172/116 88/173/88 150/174/117
f 103/175/115 98/170/114 131/172/116 150/174/117
f 88/176/88 141/177/95 151/178/118
f 141/177/95 140/179/94 149/169/113 151/178/118
f 149/169/113 103/171/115 150/180/117 151/178/118
f 150/180/117 88/176/88 151/178/118
f 130/168/112 129/142/93 162/181/119 152/182/120
f 104/183/121 98/170/114 130/168/112 152/182/120
f 161/184/122 134/161/109 117/160/108 153/185/123
f 117/160/108 91/165/106 154/186/124 153/185/123
f 154/186/124 104/183/121 152/182/120 153/185/123
f 152/182/120 162/187/119 161/184/122 153/185/123
f 91/165/106 88/173/88 131/172/116 154/186/124
f 131/172/116 98/170/114 104/183/121 154/186/124
f 119/188/125 121/189/126 156/190/127 155/191/128
f 156/190/127 158/192/129 105/193/130 155/191/128
f 158/192/129 129/142/93 144/148/99 105/193/130
f 143/149/100 115/150/101 119/188/125 155/191/128
f 105/193/130 144/148/99 143/149/100 155/191/128
f 121/189/126 120/194/131 157/195/132 156/190/127
f 157/195/132 106/196/133 158/192/129 156/190/127
f 120/194/131 89/197/134 118/198/135 157/195/132
f 118/198/135 92/199/136 106/196/133 157/195/132
f 106/196/133 92/199/136 129/142/93 158/192/129
f 116/166/110 134/200/109 132/201/137 107/202/138
f 132/201/137 121/203/126 119/188/125 107/202/138
f 119/188/125 115/150/101 116/166/110 107/202/138
f 132/204/137 134/161/109 165/205/139 159/206/140
f 165/205/139 164/207/141 108/208/142 159/206/140
f 164/207/141 124/209/143 93/210/144 108/208/142
f 122/211/145 121/203/126 132/201/137 159/212/140
f 108/213/142 93/214/144 122/211/145 159/212/140
f 118/215/135 89/216/134 133/217/146 160/218/147
f 109/219/148 92/220/136 118/215/135 160/218/147
f 162/187/119 109/221/148 160/222/147 161/184/122
f 160/222/147 133/223/146 134/161/109 161/184/122
f 129/142/93 92/220/136 109/219/148 162/181/119
f 133/217/146 89/216/134 123/224/149 163/225/150
f 123/224/149 94/226/151 110/227/152 163/225/150
f 110/228/152 135/229/153 163/230/150
f 135/231/153 133/217/146 163/225/150
f 110/228/152 94/232/151 124/209/143 164/207/141
f 134/161/109 133/223/146 135/229/153 165/205/139
f 135/229/153 110/228/152 164/207/141 165/205/139
f 167/233/154 111/234/155 168/235/156 166/236/157
f 168/235/156 120/194/131 121/189/126 166/236/157
f 167/233/154 90/237/158 126/238/159
f 126/238/159 95/239/160 111/234/155 167/233/154
f 125/240/161 89/197/134 120/194/131 168/235/156
f 111/234/155 95/239/160 125/240/161 168/235/156
f 93/210/144 124/209/143 174/241/162 169/242/163
f 174/241/162 96/243/164 112/244/165 169/242/163
f 127/245/166 90/246/158 167/247/154 170/248/167
f 112/249/165 96/250/164 127/251/166 170/252/167
f 166/253/157 121/203/126 122/211/145 171/254/168
f 122/211/145 93/214/144 169/255/163 171/254/168
f 169/255/163 112/249/165 170/252/167 171/254/168
f 170/252/167 167/256/154 166/253/157 171/254/168
f 123/224/149 89/216/134 125/257/161 172/258/169
f 125/257/161 95/259/160 137/260/170 172/258/169
f 137/260/170 113/261/171 136/262/172 172/258/169
f 136/262/172 94/226/151 123/224/149 172/258/169
f 126/263/159 90/246/158 127/245/166 173/264/173
f 127/265/166 96/243/164 138/266/174 173/267/173
f 138/268/174 113/261/171 137/260/170 173/269/173
f 137/260/170 95/259/160 126/270/159 173/269/173
f 124/209/143 94/232/151 136/271/172 174/241/162
f 136/271/172 113/272/171 138/266/174 174/241/162
f 138/266/174 96/243/164 174/241/162
