# This file uses centimeters as units for non-parametric coordinates.

mtllib Branches_Medium_01.mtl
g default
v -14.322136 1.486192 12.187988
v -15.162959 1.628801 11.342923
v -5.120791 1.811129 3.999400
v -6.008767 1.455294 2.684548
v -3.603846 3.003343 2.017916
v -15.342974 1.898215 12.424300
v 6.601195 3.025532 0.921345
v 5.765893 2.592934 -0.318369
v 7.491371 3.727462 -0.431839
v 12.112321 2.417961 -2.110310
v -14.742545 1.557497 11.765456
v -5.141821 1.456537 2.865016
v -10.683398 1.490955 8.870397
v -10.465737 1.082253 6.456618
v -4.626796 2.511488 3.245374
v -5.032873 2.206330 2.166420
v -8.983848 2.611880 5.939918
v -14.832556 1.692203 12.306143
v -15.252967 1.763508 11.883609
v 1.297501 2.543734 2.142289
v -0.344066 1.968494 0.715425
v 7.099434 2.674799 0.225905
v 2.500534 3.709421 0.654729
v 7.238955 3.362953 -0.654569
v 7.562535 3.606102 0.205171
v 11.871964 2.397173 -1.542273
v 11.613098 2.202654 -2.230064
v 11.977666 2.853473 -2.129545
v -10.199681 1.175399 7.321518
v -10.170357 1.843617 6.443527
v -9.764029 2.148964 7.523154
v 0.962973 2.180130 1.419480
v 1.026351 2.883103 0.540742
v 1.418205 3.177556 1.581883
v -11.704223 1.189316 9.308133
v -8.701749 1.156509 5.317338
v -11.949187 1.432400 8.025347
v -8.384197 2.271211 4.865095
v -11.416230 1.832900 9.441428
v -8.111108 2.476433 5.590701
v -1.259813 1.826457 1.383092
v 3.178648 2.528452 1.436960
v -1.230250 2.297575 0.797556
v 3.313913 3.455870 0.264153
v -0.698298 2.697316 2.210954
v 3.572778 3.650390 0.951944
v 10.789914 2.314812 -1.375995
v 10.895619 2.771112 -1.963266
v 11.154483 2.965631 -1.275475
v 16.913403 -2.249073 0.004374
v 16.879596 -0.197936 0.033969
v 6.418631 1.961095 -1.490253
v 6.731002 2.854657 -1.582933
v 4.668721 2.630942 -2.520726
v 16.266408 -1.216932 -1.484901
v -3.739016 0.420313 -1.932617
v -3.466101 1.653721 -1.891662
v -4.863885 1.019895 -2.656424
v -9.056729 1.205526 -1.543030
v 16.896501 -1.223504 0.019171
v 6.092334 2.647705 -1.463127
v 12.335333 -0.065714 -0.755884
v 11.419188 1.559602 -0.909841
v 5.825083 2.198808 -2.060784
v 5.821878 2.912714 -2.094609
v 10.094474 1.339162 -2.022352
v 16.589908 -1.733003 -0.740264
v 16.573003 -0.707434 -0.725466
v 0.807090 1.244834 -1.814113
v 1.664202 2.657677 -1.809935
v -4.352440 0.865439 -1.745099
v -0.572390 1.694021 -2.829995
v -4.732201 1.330848 -2.426852
v -4.719220 0.542918 -2.438219
v -8.687288 0.852549 -1.442125
v -8.697673 1.482893 -1.433032
v -8.955997 1.168888 -1.906743
v 11.473592 1.028534 -0.756856
v 11.170920 1.289922 -1.517113
v 11.174347 0.562674 -1.483481
v 0.840455 1.916458 -1.711257
v 0.553921 2.345468 -2.332321
v 0.567024 1.446274 -2.336469
v 13.285066 -0.024225 -0.496655
v 9.667508 1.961965 -1.036429
v 13.068915 0.764878 -1.021960
v 9.287629 1.902241 -1.946647
v 13.080670 -0.363891 -1.002946
v 9.288115 1.457185 -1.917768
v 2.578898 2.545020 -1.672824
v -0.893039 1.195251 -1.768675
v 2.403413 2.824960 -2.076752
v -1.337235 1.791531 -2.637221
v 2.414285 1.749560 -2.056967
v -1.326851 1.161187 -2.646314
v -7.775411 1.055086 -1.434002
v -8.044125 1.371425 -1.898619
v -8.033740 0.741080 -1.907714
v 16.979914 -0.716527 -6.771884
v 16.100199 0.104296 -7.819346
v 4.628932 1.136977 -2.285542
v 4.251124 1.692770 -3.320057
v 2.278774 0.682152 -1.821862
v 15.728786 -1.277715 -7.370057
v -3.527321 0.587723 6.764367
v -4.082223 1.353781 5.568425
v -5.235850 0.301498 6.875386
v -8.523698 1.958311 10.442143
v 16.540057 -0.306116 -7.295615
v 3.871397 1.656178 -2.586206
v 11.403003 0.175112 -5.071214
v 9.610668 1.013890 -5.551965
v 3.767583 0.785230 -2.210657
v 3.244220 1.273566 -2.833812
v 8.219460 0.078437 -4.833073
v 16.354347 -0.997121 -7.070971
v 15.914492 -0.586710 -7.594702
v -0.001640 0.826931 2.575531
v -0.204121 1.704799 0.727441
v -4.280817 1.096891 6.958420
v -1.934024 0.180530 2.912725
v -5.222174 0.708995 6.613695
v -4.701493 0.223168 7.233675
v -7.923652 1.815298 10.478316
v -8.340198 2.203960 9.982334
v -8.581342 1.547772 10.248142
v 10.050311 0.747719 -5.102790
v 9.367617 0.499730 -5.459213
v 9.860155 0.040158 -4.872764
v -0.382786 1.347315 2.036725
v -1.143434 1.012989 1.694136
v -0.538907 0.448928 2.413946
v 12.367204 0.253082 -5.650793
v 7.712347 1.262020 -4.579875
v 11.614777 0.378956 -6.249512
v 7.111562 0.587394 -4.658149
v 12.243397 -0.207588 -5.501030
v 7.446945 0.274458 -4.258822
v 0.736398 1.680927 0.155331
v -1.461388 0.975841 3.966448
v 0.259417 1.466971 -0.072707
v -2.596058 0.494359 3.508238
v 1.011345 0.765373 0.822604
v -2.179512 0.105698 4.004221
v -7.256224 1.855679 9.606743
v -7.913911 1.588153 9.376572
v -7.497366 1.199491 9.872556
vt 0.878997 0.059430
vt 0.842179 0.059473
vt 0.875109 0.342664
vt 0.846480 0.333339
vt 0.861150 0.059529
vt 0.861463 0.375848
vt 0.847992 0.568804
vt 0.873850 0.575164
vt 0.861365 0.594612
vt 0.860680 0.726074
vt 0.867196 0.158830
vt 0.854533 0.258331
vt 0.848112 0.158978
vt 0.854594 0.258559
vt 0.873520 0.158849
vt 0.867729 0.258444
vt 0.854398 0.433825
vt 0.867471 0.509114
vt 0.848135 0.434035
vt 0.855031 0.509839
vt 0.874088 0.433201
vt 0.867848 0.509120
vt 0.860664 0.690710
vt 0.854487 0.691225
vt 0.867304 0.690506
vt 0.860588 0.059452
vt 0.861080 0.208556
vt 0.875032 0.183674
vt 0.846457 0.208678
vt 0.857587 0.351919
vt 0.851664 0.059501
vt 0.851215 0.208749
vt 0.861274 0.233687
vt 0.851340 0.352185
vt 0.870703 0.208602
vt 0.870074 0.059479
vt 0.870964 0.351862
vt 0.846328 0.452937
vt 0.861014 0.471621
vt 0.862533 0.592394
vt 0.875549 0.470925
vt 0.851641 0.472011
vt 0.861549 0.490630
vt 0.853246 0.593091
vt 0.870946 0.471084
vt 0.869268 0.592192
vt 0.854229 0.717566
vt 0.867046 0.716847
vt 0.860869 0.717363
vt 0.801286 0.536643
vt 0.790149 0.541155
vt 0.799136 0.551512
vt 0.779012 0.545666
vt 0.787999 0.556024
vt 0.796987 0.566381
vt 0.860588 0.059452
vt 0.842179 0.059473
vt 0.861080 0.208556
vt 0.867196 0.158830
vt 0.875109 0.342664
vt 0.875032 0.183674
vt 0.878997 0.059430
vt 0.846457 0.208678
vt 0.854533 0.258331
vt 0.846480 0.333339
vt 0.857587 0.351919
vt 0.851664 0.059501
vt 0.861150 0.059529
vt 0.851215 0.208749
vt 0.848112 0.158978
vt 0.861274 0.233687
vt 0.854594 0.258559
vt 0.861463 0.375848
vt 0.851340 0.352185
vt 0.870703 0.208602
vt 0.873520 0.158849
vt 0.870074 0.059479
vt 0.870964 0.351862
vt 0.867729 0.258444
vt 0.846328 0.452937
vt 0.847992 0.568804
vt 0.861014 0.471621
vt 0.854398 0.433825
vt 0.862533 0.592394
vt 0.867471 0.509114
vt 0.873850 0.575164
vt 0.875549 0.470925
vt 0.851641 0.472011
vt 0.848135 0.434035
vt 0.861549 0.490630
vt 0.855031 0.509839
vt 0.861365 0.594612
vt 0.853246 0.593091
vt 0.870946 0.471084
vt 0.874088 0.433201
vt 0.869268 0.592192
vt 0.867848 0.509120
vt 0.854229 0.717566
vt 0.860664 0.690710
vt 0.860680 0.726074
vt 0.867046 0.716847
vt 0.860869 0.717363
vt 0.854487 0.691225
vt 0.867304 0.690506
vt 0.860588 0.059452
vt 0.842179 0.059473
vt 0.861080 0.208556
vt 0.867196 0.158830
vt 0.875109 0.342664
vt 0.875032 0.183674
vt 0.878997 0.059430
vt 0.846457 0.208678
vt 0.854533 0.258331
vt 0.846480 0.333339
vt 0.857587 0.351919
vt 0.851664 0.059501
vt 0.861150 0.059529
vt 0.851215 0.208749
vt 0.848112 0.158978
vt 0.861274 0.233687
vt 0.854594 0.258559
vt 0.861463 0.375848
vt 0.851340 0.352185
vt 0.870703 0.208602
vt 0.873520 0.158849
vt 0.870074 0.059479
vt 0.870964 0.351862
vt 0.867729 0.258444
vt 0.846328 0.452937
vt 0.847992 0.568804
vt 0.861014 0.471621
vt 0.854398 0.433825
vt 0.862533 0.592394
vt 0.867471 0.509114
vt 0.873850 0.575164
vt 0.875549 0.470925
vt 0.851641 0.472011
vt 0.848135 0.434035
vt 0.861549 0.490630
vt 0.855031 0.509839
vt 0.861365 0.594612
vt 0.853246 0.593091
vt 0.870946 0.471084
vt 0.874088 0.433201
vt 0.869268 0.592192
vt 0.867848 0.509120
vt 0.854229 0.717566
vt 0.860664 0.690710
vt 0.860680 0.726074
vt 0.867046 0.716847
vt 0.860869 0.717363
vt 0.854487 0.691225
vt 0.867304 0.690506
vn -0.141290 -0.989616 -0.026422
vn -0.732100 -0.334934 -0.593168
vn 0.031908 -0.995888 0.084785
vn 0.173666 -0.964799 0.197492
vn 0.476441 -0.522847 0.706849
vn 0.626494 -0.481003 0.613304
vn 0.455786 -0.433821 0.777213
vn -0.509477 -0.693611 -0.509251
vn 0.164590 -0.981267 0.100124
vn -0.476760 -0.442344 -0.759626
vn 0.159673 -0.977183 0.140062
vn -0.221812 0.936867 -0.270334
vn -0.118109 0.992261 -0.038328
vn -0.648213 0.483627 -0.588154
vn -0.634817 0.472555 -0.611310
vn -0.323789 0.915383 -0.239237
vn -0.597122 0.413241 -0.687515
vn -0.206789 0.934831 -0.288669
vn -0.456618 0.376567 -0.806038
vn 0.424809 0.738775 0.523210
vn 0.491932 0.654520 0.574113
vn 0.419696 0.732158 0.536469
vn 0.410105 0.758825 0.505963
vn 0.288441 0.700574 0.652685
vn -0.138655 -0.742746 -0.655059
vn 0.154237 -0.965419 0.210182
vn -0.009508 -0.798976 -0.601287
vn 0.125521 -0.985019 0.118243
vn 0.163230 -0.937197 0.308249
vn 0.060350 -0.951067 0.303033
vn 0.283405 0.050194 0.957686
vn 0.252307 -0.316495 0.914424
vn -0.283500 0.245634 -0.926980
vn -0.213826 0.327211 -0.920441
vn -0.152402 0.968773 -0.195585
vn -0.177715 0.339236 -0.923762
vn 0.021210 0.968886 -0.246597
vn -0.263176 0.283449 -0.922169
vn 0.055334 0.771079 0.634331
vn 0.065473 0.777818 0.625070
vn 0.080250 0.819773 0.567039
vn 0.326211 0.681052 0.655556
vn 0.039086 -0.961317 0.272657
vn -0.146765 -0.723743 -0.674282
vn 0.874797 -0.411992 -0.254936
vn 0.540191 -0.313295 0.781051
vn -0.256490 0.347555 -0.901897
vn 0.318914 0.888526 -0.329872
vn 0.380277 0.753892 0.535757
vn -0.333310 -0.926375 0.175311
vn -0.333313 -0.926374 0.175309
vn -0.333313 -0.926374 0.175310
vn -0.333314 -0.926374 0.175307
vn -0.333315 -0.926374 0.175308
vn -0.333316 -0.926373 0.175311
vn -0.170218 -0.054204 0.983914
vn 0.090388 0.582128 0.808057
vn -0.137585 0.018470 0.990318
vn -0.166592 -0.053202 0.984590
vn -0.220664 -0.722717 0.654971
vn -0.352095 -0.705845 0.614664
vn -0.373525 -0.587466 0.717888
vn 0.244740 0.938254 0.244503
vn -0.087185 0.179659 0.979858
vn 0.219435 0.965693 0.138873
vn -0.068411 0.160971 0.984585
vn 0.349240 0.726584 -0.591698
vn 0.035005 -0.166373 -0.985441
vn 0.330614 0.748710 -0.574567
vn 0.348136 0.729019 -0.589349
vn 0.089113 -0.015074 -0.995907
vn 0.264337 0.715388 -0.646797
vn 0.073246 0.054140 -0.995843
vn 0.118730 0.867166 -0.483660
vn -0.277139 -0.848437 -0.450942
vn -0.313869 -0.861715 -0.398664
vn -0.325707 -0.865516 -0.380521
vn -0.013455 -0.851081 -0.524862
vn -0.208333 -0.874727 -0.437550
vn -0.161837 0.788487 0.593377
vn -0.117739 0.791545 0.599662
vn -0.041445 0.012806 0.999059
vn -0.053666 0.152289 0.986878
vn 0.064100 -0.052099 0.996583
vn -0.003785 -0.075553 0.997135
vn 0.127163 -0.964326 0.232176
vn 0.110704 -0.790035 0.602984
vn -0.140600 0.862605 -0.485946
vn -0.065981 0.974179 -0.215919
vn 0.052718 0.008760 -0.998571
vn -0.155192 0.834786 -0.528250
vn -0.115023 -0.018716 -0.993186
vn -0.095255 0.841016 -0.532559
vn 0.180136 -0.780730 -0.598340
vn 0.133800 -0.769726 -0.624195
vn -0.051257 -0.845447 -0.531594
vn 0.114177 -0.721505 -0.682931
vn -0.095458 0.834394 0.542840
vn 0.078505 -0.039464 0.996132
vn -0.927431 0.065251 0.368257
vn -0.215740 -0.837572 0.501926
vn -0.417281 -0.060268 -0.906777
vn -0.086801 0.842410 -0.531799
vn -0.151666 -0.865098 -0.478125
vn 0.289493 0.833908 0.469883
vn 0.104636 0.980932 -0.163779
vn 0.287790 0.856937 0.427593
vn 0.290663 0.835480 0.466357
vn 0.491625 0.308283 0.814412
vn 0.375742 0.203543 0.904095
vn 0.338836 0.340727 0.876981
vn -0.053033 0.895220 -0.442458
vn 0.266997 0.897100 0.352029
vn -0.269563 0.647545 -0.712756
vn 0.287379 0.898539 0.331725
vn -0.334793 -0.167730 -0.927243
vn -0.235750 -0.929997 -0.282005
vn -0.362140 -0.196886 -0.911093
vn -0.335837 -0.165836 -0.927206
vn -0.299465 -0.840899 -0.450788
vn -0.426006 -0.310505 -0.849768
vn -0.368564 -0.815125 -0.446912
vn -0.565129 -0.114716 -0.816988
vn 0.068750 -0.835665 0.544919
vn 0.091558 -0.764960 0.637536
vn 0.095053 -0.749970 0.654606
vn 0.251345 -0.891700 0.376426
vn 0.153514 -0.820020 0.551363
vn -0.339058 0.917785 -0.206665
vn -0.294153 0.921347 -0.254152
vn 0.357524 0.855955 0.373520
vn 0.299969 0.897626 0.322933
vn 0.460467 0.827403 0.321518
vn 0.416328 0.822884 0.386695
vn 0.714513 -0.278511 0.641796
vn 0.732318 0.194720 0.652529
vn -0.759078 -0.054923 -0.648679
vn -0.691830 0.168929 -0.702022
vn -0.341195 -0.857141 -0.385870
vn -0.769731 -0.051002 -0.636328
vn -0.454944 -0.856960 -0.242167
vn -0.734291 -0.040152 -0.677646
vn 0.337075 -0.920755 0.196447
vn 0.277501 -0.939037 0.202986
vn 0.219844 -0.877835 0.425528
vn 0.220569 -0.959555 0.174938
vn -0.322407 0.889319 -0.324291
vn 0.466305 0.831479 0.301996
vn -0.584159 0.422536 0.692980
vn 0.489236 0.023937 0.871823
vn -0.631610 -0.774935 0.023316
vn -0.730875 -0.034584 -0.681635
vn 0.173763 -0.831635 0.527437
s 1
g polySurface27
usemtl lambert2SG
f 11/26/1 2/2/2 35/11/3
f 35/11/3 2/2/2 29/27/4
f 3/3/5 13/28/6 29/27/4
f 29/27/4 13/28/6 35/11/3
f 13/28/6 1/1/7 35/11/3
f 35/11/3 1/1/7 11/26/1
f 2/2/2 14/29/8 29/27/4
f 29/27/4 14/29/8 36/12/9
f 14/29/8 4/4/10 36/12/9
f 36/12/9 4/4/10 12/30/11
f 12/30/11 3/3/5 36/12/9
f 36/12/9 3/3/5 29/27/4
f 19/31/12 6/5/13 37/13/14
f 37/13/14 6/5/13 30/32/15
f 4/4/10 14/29/8 30/32/15
f 30/32/15 14/29/8 37/13/14
f 14/29/8 2/2/2 37/13/14
f 37/13/14 2/2/2 19/31/12
f 6/5/13 17/33/16 30/32/15
f 30/32/15 17/33/16 38/14/17
f 5/6/18 16/34/19 17/33/16
f 17/33/16 16/34/19 38/14/17
f 16/34/19 4/4/10 38/14/17
f 38/14/17 4/4/10 30/32/15
f 3/3/5 31/35/20 13/28/6
f 13/28/6 31/35/20 39/15/21
f 31/35/20 6/5/13 39/15/21
f 39/15/21 6/5/13 18/36/22
f 18/36/22 1/1/7 39/15/21
f 39/15/21 1/1/7 13/28/6
f 31/35/20 3/3/5 40/16/23
f 40/16/23 3/3/5 15/37/24
f 5/6/18 17/33/16 15/37/24
f 15/37/24 17/33/16 40/16/23
f 6/5/13 31/35/20 17/33/16
f 17/33/16 31/35/20 40/16/23
f 8/7/25 32/39/26 21/38/27
f 21/38/27 32/39/26 41/17/28
f 32/39/26 3/3/5 41/17/28
f 41/17/28 3/3/5 12/30/11
f 12/30/11 4/4/10 41/17/28
f 41/17/28 4/4/10 21/38/27
f 32/39/26 8/7/25 42/18/29
f 42/18/29 8/7/25 22/40/30
f 22/40/30 7/8/31 42/18/29
f 42/18/29 7/8/31 20/41/32
f 3/3/5 32/39/26 20/41/32
f 20/41/32 32/39/26 42/18/29
f 16/34/19 5/6/18 43/19/33
f 43/19/33 5/6/18 33/42/34
f 8/7/25 21/38/27 33/42/34
f 33/42/34 21/38/27 43/19/33
f 4/4/10 16/34/19 21/38/27
f 21/38/27 16/34/19 43/19/33
f 5/6/18 23/43/35 33/42/34
f 33/42/34 23/43/35 44/20/36
f 23/43/35 9/9/37 44/20/36
f 44/20/36 9/9/37 24/44/38
f 24/44/38 8/7/25 44/20/36
f 44/20/36 8/7/25 33/42/34
f 7/8/31 34/45/39 20/41/32
f 20/41/32 34/45/39 45/21/40
f 34/45/39 5/6/18 45/21/40
f 45/21/40 5/6/18 15/37/24
f 15/37/24 3/3/5 45/21/40
f 45/21/40 3/3/5 20/41/32
f 34/45/39 7/8/31 46/22/41
f 46/22/41 7/8/31 25/46/42
f 25/46/42 9/9/37 46/22/41
f 46/22/41 9/9/37 23/43/35
f 5/6/18 34/45/39 23/43/35
f 23/43/35 34/45/39 46/22/41
f 22/40/30 8/7/25 47/23/43
f 47/23/43 8/7/25 27/47/44
f 10/10/45 26/48/46 27/47/44
f 27/47/44 26/48/46 47/23/43
f 26/48/46 7/8/31 47/23/43
f 47/23/43 7/8/31 22/40/30
f 24/44/38 9/9/37 48/24/47
f 48/24/47 9/9/37 28/49/48
f 10/10/45 27/47/44 28/49/48
f 28/49/48 27/47/44 48/24/47
f 8/7/25 24/44/38 27/47/44
f 27/47/44 24/44/38 48/24/47
f 7/8/31 26/48/46 25/46/42
f 25/46/42 26/48/46 49/25/49
f 10/10/45 28/49/48 26/48/46
f 26/48/46 28/49/48 49/25/49
f 28/49/48 9/9/37 49/25/49
f 49/25/49 9/9/37 25/46/42
s 7
f 2/50/50 11/51/51 19/52/52
f 1/53/53 18/54/54 11/51/51
f 11/51/51 18/54/54 19/52/52
f 18/54/54 6/55/55 19/52/52
s 8
f 60/56/56 51/57/57 78/58/58 84/59/59
f 78/58/58 52/60/60 62/61/61 84/59/59
f 62/61/61 50/62/62 60/56/56 84/59/59
f 78/58/58 51/57/57 63/63/63 85/64/64
f 63/63/63 53/65/65 61/66/66 85/64/64
f 61/66/66 52/60/60 78/58/58 85/64/64
f 68/67/67 55/68/68 79/69/69 86/70/70
f 79/69/69 53/65/65 63/63/63 86/70/70
f 63/63/63 51/57/57 68/67/67 86/70/70
f 79/69/69 55/68/68 66/71/71 87/72/72
f 66/71/71 54/73/73 65/74/74 87/72/72
f 65/74/74 53/65/65 79/69/69 87/72/72
f 62/61/61 52/60/60 80/75/75 88/76/76
f 80/75/75 55/68/68 67/77/77 88/76/76
f 67/77/77 50/62/62 62/61/61 88/76/76
f 80/75/75 52/60/60 64/78/78 89/79/79
f 64/78/78 54/73/73 66/71/71 89/79/79
f 66/71/71 55/68/68 80/75/75 89/79/79
f 70/80/80 57/81/81 81/82/82 90/83/83
f 81/82/82 52/60/60 61/66/66 90/83/83
f 61/66/66 53/65/65 70/80/80 90/83/83
f 81/82/82 57/81/81 71/84/84 91/85/85
f 71/84/84 56/86/86 69/87/87 91/85/85
f 69/87/87 52/60/60 81/82/82 91/85/85
f 65/74/74 54/73/73 82/88/88 92/89/89
f 82/88/88 57/81/81 70/80/80 92/89/89
f 70/80/80 53/65/65 65/74/74 92/89/89
f 82/88/88 54/73/73 72/90/90 93/91/91
f 72/90/90 58/92/92 73/93/93 93/91/91
f 73/93/93 57/81/81 82/88/88 93/91/91
f 69/87/87 56/86/86 83/94/94 94/95/95
f 83/94/94 54/73/73 64/78/78 94/95/95
f 64/78/78 52/60/60 69/87/87 94/95/95
f 83/94/94 56/86/86 74/96/96 95/97/97
f 74/96/96 58/92/92 72/90/90 95/97/97
f 72/90/90 54/73/73 83/94/94 95/97/97
f 71/84/84 57/81/81 76/98/98 96/99/99
f 76/98/98 59/100/100 75/101/101 96/99/99
f 75/101/101 56/86/86 71/84/84 96/99/99
f 73/93/93 58/92/92 77/102/102 97/103/103
f 77/102/102 59/100/100 76/98/98 97/103/103
f 76/98/98 57/81/81 73/93/93 97/103/103
f 74/96/96 56/86/86 75/101/101 98/104/104
f 75/101/101 59/100/100 77/102/102 98/104/104
f 77/102/102 58/92/92 74/96/96 98/104/104
s 11
f 109/105/105 100/106/106 127/107/107 133/108/108
f 127/107/107 101/109/109 111/110/110 133/108/108
f 111/110/110 99/111/111 109/105/105 133/108/108
f 127/107/107 100/106/106 112/112/112 134/113/113
f 112/112/112 102/114/114 110/115/115 134/113/113
f 110/115/115 101/109/109 127/107/107 134/113/113
f 117/116/116 104/117/117 128/118/118 135/119/119
f 128/118/118 102/114/114 112/112/112 135/119/119
f 112/112/112 100/106/106 117/116/116 135/119/119
f 128/118/118 104/117/117 115/120/120 136/121/121
f 115/120/120 103/122/122 114/123/123 136/121/121
f 114/123/123 102/114/114 128/118/118 136/121/121
f 111/110/110 101/109/109 129/124/124 137/125/125
f 129/124/124 104/117/117 116/126/126 137/125/125
f 116/126/126 99/111/111 111/110/110 137/125/125
f 129/124/124 101/109/109 113/127/127 138/128/128
f 113/127/127 103/122/122 115/120/120 138/128/128
f 115/120/120 104/117/117 129/124/124 138/128/128
f 119/129/129 106/130/130 130/131/131 139/132/132
f 130/131/131 101/109/109 110/115/115 139/132/132
f 110/115/115 102/114/114 119/129/129 139/132/132
f 130/131/131 106/130/130 120/133/133 140/134/134
f 120/133/133 105/135/135 118/136/136 140/134/134
f 118/136/136 101/109/109 130/131/131 140/134/134
f 114/123/123 103/122/122 131/137/137 141/138/138
f 131/137/137 106/130/130 119/129/129 141/138/138
f 119/129/129 102/114/114 114/123/123 141/138/138
f 131/137/137 103/122/122 121/139/139 142/140/140
f 121/139/139 107/141/141 122/142/142 142/140/140
f 122/142/142 106/130/130 131/137/137 142/140/140
f 118/136/136 105/135/135 132/143/143 143/144/144
f 132/143/143 103/122/122 113/127/127 143/144/144
f 113/127/127 101/109/109 118/136/136 143/144/144
f 132/143/143 105/135/135 123/145/145 144/146/146
f 123/145/145 107/141/141 121/139/139 144/146/146
f 121/139/139 103/122/122 132/143/143 144/146/146
f 120/133/133 106/130/130 125/147/147 145/148/148
f 125/147/147 108/149/149 124/150/150 145/148/148
f 124/150/150 105/135/135 120/133/133 145/148/148
f 122/142/142 107/141/141 126/151/151 146/152/152
f 126/151/151 108/149/149 125/147/147 146/152/152
f 125/147/147 106/130/130 122/142/142 146/152/152
f 123/145/145 105/135/135 124/150/150 147/153/153
f 124/150/150 108/149/149 126/151/151 147/153/153
f 126/151/151 107/141/141 123/145/145 147/153/153
