# This file uses centimeters as units for non-parametric coordinates.

mtllib StoneItem_01_v01.mtl
v -0.744319 0.093847 0.537541
v 0.879723 0.219438 0.724791
v -0.880494 1.513951 0.620253
v 0.721869 1.355858 0.836252
v -0.568565 1.330658 -0.484919
v 0.553770 1.440027 -0.424409
v -0.705597 0.078495 -0.809365
v 0.604255 0.142684 -0.511804
v 0.684744 1.363776 0.373947
v -0.954960 1.528100 0.242073
v -0.811628 -0.048891 0.086298
v 0.887576 0.119646 0.341400
v 0.599426 1.496690 -0.055689
v -0.852978 1.546915 -0.082861
v -0.842909 0.023275 -0.318937
v 0.734350 0.045793 -0.139990
v 0.317919 1.466948 -0.493574
v 0.343966 0.080040 -0.619651
v 0.386249 -0.130978 -0.226415
v 0.485440 -0.088607 0.301932
v 0.589630 0.124941 0.855660
v 0.424199 1.406878 0.879854
v 0.354156 1.613783 0.447630
v 0.314466 1.683339 -0.132255
v 0.051610 1.488095 -0.582557
v -0.062347 0.050175 -0.846619
v -0.050786 -0.135641 -0.331224
v 0.010417 -0.262272 0.233158
v 0.001503 0.091874 0.858940
v -0.024243 1.546590 0.929129
v -0.067967 1.801959 0.320683
v -0.083167 1.750321 -0.081198
v -0.551487 1.532848 0.806945
v -0.565080 1.743521 0.308546
v -0.408527 1.709348 -0.116536
v -0.337108 1.429190 -0.534984
v -0.457665 0.048666 -0.806543
v -0.490245 -0.163220 -0.404482
v -0.460680 -0.150174 0.179734
v -0.391109 -0.028031 0.683001
v -0.967019 1.201643 0.754780
v -1.104681 1.237990 0.248372
v -1.036356 1.110000 -0.239280
v -0.772910 1.060752 -0.630104
v -0.325733 1.077699 -0.881150
v 0.049830 1.128016 -0.868901
v 0.366623 1.170526 -0.863268
v 0.640595 1.191444 -0.519643
v 0.848339 1.136829 -0.094213
v 0.942797 1.124597 0.480351
v 0.837306 1.112028 0.947140
v 0.490793 1.202802 1.190606
v -0.031970 1.212618 1.230793
v -0.545476 1.260592 1.081465
v -0.959640 0.827866 0.766052
v -1.217641 0.770583 0.228644
v -1.094829 0.713798 -0.401657
v -0.871236 0.671377 -0.806031
v -0.421351 0.723960 -1.102449
v 0.010450 0.753223 -1.149691
v 0.359711 0.805815 -0.910687
v 0.689843 0.816594 -0.627726
v 0.943768 0.785487 -0.083175
v 1.139284 0.780597 0.490140
v 0.932766 0.829262 0.989777
v 0.519732 0.821522 1.284038
v -0.028905 0.846298 1.423036
v -0.533922 0.801442 1.176330
v -0.848542 0.371787 0.648113
v -1.037979 0.362145 0.198866
v -1.058328 0.279652 -0.425897
v -0.824570 0.293239 -0.808726
v -0.422815 0.320931 -1.076391
v -0.051828 0.374717 -0.993785
v 0.327108 0.405221 -0.940955
v 0.673667 0.426131 -0.539325
v 0.954124 0.449087 -0.125825
v 1.099008 0.454005 0.415433
v 0.952297 0.464570 0.937725
v 0.535907 0.465422 1.154281
v 0.059058 0.395763 1.209073
v -0.523930 0.429374 1.065922
vt 0.450450 0.726340
vt 0.528660 0.718070
vt 0.419400 0.674880
vt 0.481650 0.614290
vt 0.311470 0.443110
vt 0.191350 0.446770
vt 0.276020 0.499340
vt 0.222950 0.533410
vt 0.141160 0.882920
vt 0.225000 0.901040
vt 0.209310 0.827940
vt 0.235570 0.863350
vt 0.397120 0.799370
vt 0.465440 0.833750
vt 0.755420 0.464840
vt 0.703930 0.413120
vt 0.690360 0.483780
vt 0.643910 0.459180
vt 0.353920 0.721470
vt 0.170680 0.557450
vt 0.105400 0.509350
vt 0.321710 0.828220
vt 0.271460 0.785010
vt 0.332320 0.905090
vt 0.767180 0.360290
vt 0.831290 0.419090
vt 0.095650 0.630380
vt 0.049690 0.616790
vt 0.829550 0.307700
vt 0.866370 0.348550
vt 0.892670 0.234360
vt 0.914120 0.328060
vt 0.902760 0.434710
vt 0.801880 0.537950
vt 0.675810 0.542250
vt 0.598820 0.506420
vt 0.488330 0.223300
vt 0.475580 0.326050
vt 0.565200 0.266940
vt 0.530220 0.335340
vt 0.598860 0.143580
vt 0.612480 0.204550
vt 0.683550 0.139270
vt 0.674610 0.179510
vt 0.949250 0.185180
vt 0.985440 0.261710
vt 0.998040 0.383850
vt 0.982620 0.472530
vt 0.905250 0.561480
vt 0.801360 0.645420
vt 0.620260 0.653200
vt 0.561110 0.571710
vt 0.397130 0.191920
vt 0.380460 0.346280
vt 0.581770 0.068080
vt 0.494460 0.105720
vt 0.699590 0.091550
vt 0.221500 0.339470
vt 0.097850 0.399500
vt 0.056890 0.469690
vt 0.607520 0.001950
vt 0.712330 0.019980
vt 0.199040 0.966760
vt 0.128700 0.957300
vt 0.301400 0.998040
vt 0.387990 0.956560
vt 0.496610 0.934750
vt 0.578550 0.834350
vt 0.323530 0.541510
vt 0.255110 0.583740
vt 0.198850 0.646590
vt 0.131210 0.694430
vt 0.042710 0.728260
vt 0.823290 0.044540
vt 0.793180 0.108630
vt 0.770030 0.157270
vt 0.718830 0.207130
vt 0.669810 0.264810
vt 0.606630 0.322650
vt 0.561550 0.376370
vt 0.504360 0.394990
vt 0.436550 0.427290
vt 0.374120 0.476710
vt 0.303040 0.656800
vt 0.369000 0.596090
vt 0.225860 0.720630
vt 0.166340 0.771020
vt 0.078310 0.815510
vt 0.916710 0.072030
vt 0.879380 0.139180
vt 0.828950 0.191070
vt 0.781270 0.247320
vt 0.718710 0.315900
vt 0.657560 0.374840
vt 0.597650 0.415080
vt 0.547750 0.458270
vt 0.488010 0.494930
vt 0.437380 0.547980
vt 0.987930 0.111990
vn -0.607786 -0.665582 0.433124
vn -0.247668 -0.812066 0.528403
vn -0.742190 -0.435368 0.509518
vn -0.455621 -0.481864 0.748477
vn -0.255776 0.806675 0.532780
vn -0.250127 0.960246 0.123951
vn -0.608085 0.676477 0.415465
vn -0.707946 0.706256 -0.003683
vn -0.215099 -0.314882 -0.924436
vn -0.142697 -0.784804 -0.603092
vn -0.682917 -0.244514 -0.688359
vn -0.470322 -0.694027 -0.545090
vn -0.633226 -0.764527 0.120510
vn -0.244073 -0.963520 0.109803
vn 0.681997 -0.731064 0.020639
vn 0.955982 -0.288804 -0.051869
vn 0.652718 -0.684249 0.325210
vn 0.726509 -0.303354 0.616572
vn -0.897104 -0.417644 0.144145
vn -0.580699 0.692072 -0.428748
vn -0.215639 0.896267 -0.387564
vn -0.671857 -0.732703 -0.108418
vn -0.924919 -0.344626 -0.160492
vn -0.148401 -0.971702 -0.183773
vn 0.897213 -0.210845 -0.388012
vn 0.684207 -0.688978 -0.239105
vn -0.452652 0.647336 -0.613240
vn -0.249669 0.740937 -0.623440
vn 0.790597 -0.231654 -0.566827
vn 0.631949 -0.527052 -0.568205
vn 0.558525 -0.318699 -0.765820
vn 0.399208 -0.742069 -0.538486
vn 0.287170 -0.928853 -0.234019
vn 0.316740 -0.921000 0.226790
vn 0.219010 -0.831844 0.509971
vn 0.312330 -0.447621 0.837906
vn 0.444700 0.865695 0.229812
vn 0.286612 0.856641 0.428975
vn 0.661952 0.748271 0.043708
vn 0.530033 0.811897 0.244720
vn 0.339227 0.923489 -0.179147
vn 0.695503 0.717545 -0.037473
vn 0.321346 0.774080 -0.545469
vn 0.619090 0.649006 -0.442175
vn 0.149828 -0.355065 -0.922757
vn 0.185879 -0.780222 -0.597246
vn 0.069469 -0.965157 -0.252281
vn 0.055256 -0.984166 0.168418
vn 0.005363 -0.815036 0.579385
vn -0.052099 -0.576098 0.815719
vn 0.093569 0.975938 0.196954
vn 0.065782 0.831684 0.551339
vn 0.003064 0.944646 -0.328076
vn -0.037018 0.786524 -0.616449
vn -0.808512 0.201658 0.552849
vn -0.951734 0.301771 0.055997
vn -0.834320 0.386896 -0.392711
vn -0.583593 0.541392 -0.605239
vn -0.240837 0.622548 -0.744602
vn 0.006815 0.579653 -0.814835
vn 0.396457 0.448821 -0.800863
vn 0.775504 0.395539 -0.492080
vn 0.889394 0.399766 -0.221733
vn 0.836346 0.547855 -0.019486
vn 0.759189 0.405142 0.509404
vn 0.299729 0.543923 0.783779
vn -0.085626 0.547921 0.832137
vn -0.422902 0.400065 0.813082
vn -0.988738 -0.082830 0.124642
vn -0.816770 -0.110853 0.566215
vn -0.951890 0.068241 -0.298746
vn -0.707424 0.191142 -0.680453
vn -0.328498 0.220442 -0.918420
vn 0.160002 0.150884 -0.975517
vn 0.584888 0.106327 -0.804115
vn 0.814862 0.019350 -0.579332
vn 0.926164 0.156565 -0.343087
vn 0.976299 0.216202 0.009893
vn 0.780403 0.132793 0.611013
vn 0.382886 -0.056140 0.922088
vn -0.138147 -0.049085 0.989195
vn -0.512931 -0.055576 0.856629
s 1
g rock_item
usemtl lambert10SG
f 1/1/1 40/2/2 69/3/3
f 69/3/3 40/2/2 82/4/4
f 33/5/5 34/6/6 3/7/7
f 3/7/7 34/6/6 10/8/8
f 73/9/9 37/10/10 72/11/11
f 72/11/11 37/10/10 7/12/12
f 11/13/13 39/14/14 1/1/1
f 1/1/1 39/14/14 40/2/2
f 12/15/15 78/16/16 2/17/17
f 2/17/17 78/16/16 79/18/18
f 11/13/13 1/1/1 70/19/19
f 70/19/19 1/1/1 69/3/3
f 10/8/8 34/6/6 14/20/20
f 14/20/20 34/6/6 35/21/21
f 11/13/13 70/19/19 15/22/22
f 15/22/22 70/19/19 71/23/23
f 15/22/22 38/24/24 11/13/13
f 11/13/13 38/24/24 39/14/14
f 78/16/16 12/15/15 77/25/25
f 77/25/25 12/15/15 16/26/26
f 14/20/20 35/21/21 5/27/27
f 5/27/27 35/21/21 36/28/28
f 15/22/22 71/23/23 7/12/12
f 7/12/12 71/23/23 72/11/11
f 37/10/10 38/24/24 7/12/12
f 7/12/12 38/24/24 15/22/22
f 77/25/25 16/26/26 76/29/29
f 76/29/29 16/26/26 8/30/30
f 75/31/31 76/29/29 18/32/32
f 18/32/32 76/29/29 8/30/30
f 18/32/32 8/30/30 19/33/33
f 19/33/33 8/30/30 16/26/26
f 19/33/33 16/26/26 20/34/34
f 20/34/34 16/26/26 12/15/15
f 20/34/34 12/15/15 21/35/35
f 21/35/35 12/15/15 2/17/17
f 80/36/36 21/35/35 79/18/18
f 79/18/18 21/35/35 2/17/17
f 23/37/37 22/38/38 9/39/39
f 9/39/39 22/38/38 4/40/40
f 24/41/41 23/37/37 13/42/42
f 13/42/42 23/37/37 9/39/39
f 17/43/43 24/41/41 6/44/44
f 6/44/44 24/41/41 13/42/42
f 74/45/45 75/31/31 26/46/46
f 26/46/46 75/31/31 18/32/32
f 26/46/46 18/32/32 27/47/47
f 27/47/47 18/32/32 19/33/33
f 27/48/47 19/33/33 28/49/48
f 28/49/48 19/33/33 20/34/34
f 28/50/48 20/34/34 29/51/49
f 29/51/49 20/34/34 21/35/35
f 29/51/49 21/35/35 81/52/50
f 81/52/50 21/35/35 80/36/36
f 31/53/51 30/54/52 23/37/37
f 23/37/37 30/54/52 22/38/38
f 32/55/53 31/56/51 24/41/41
f 24/41/41 31/56/51 23/37/37
f 32/55/53 24/41/41 25/57/54
f 25/57/54 24/41/41 17/43/43
f 30/54/52 31/58/51 33/5/5
f 33/5/5 31/58/51 34/6/6
f 34/6/6 31/59/51 35/21/21
f 35/21/21 31/59/51 32/60/53
f 35/61/21 32/55/53 36/62/28
f 36/62/28 32/55/53 25/57/54
f 37/10/10 73/9/9 26/63/46
f 26/63/46 73/9/9 74/64/45
f 37/10/10 26/63/46 38/24/24
f 38/24/24 26/63/46 27/65/47
f 38/24/24 27/66/47 39/14/14
f 39/14/14 27/66/47 28/67/48
f 39/14/14 28/68/48 40/2/2
f 40/2/2 28/68/48 29/51/49
f 40/2/2 29/51/49 82/4/4
f 82/4/4 29/51/49 81/52/50
f 41/69/55 3/7/7 42/70/56
f 42/70/56 3/7/7 10/8/8
f 43/71/57 42/70/56 14/20/20
f 14/20/20 42/70/56 10/8/8
f 44/72/58 43/71/57 5/27/27
f 5/27/27 43/71/57 14/20/20
f 36/28/28 45/73/59 5/27/27
f 5/27/27 45/73/59 44/72/58
f 45/74/59 36/62/28 46/75/60
f 46/75/60 36/62/28 25/57/54
f 17/43/43 47/76/61 25/57/54
f 25/57/54 47/76/61 46/75/60
f 6/44/44 48/77/62 17/43/43
f 17/43/43 48/77/62 47/76/61
f 13/42/42 49/78/63 6/44/44
f 6/44/44 49/78/63 48/77/62
f 50/79/64 49/78/63 9/39/39
f 9/39/39 49/78/63 13/42/42
f 51/80/65 50/79/64 4/40/40
f 4/40/40 50/79/64 9/39/39
f 22/38/38 52/81/66 4/40/40
f 4/40/40 52/81/66 51/80/65
f 30/54/52 53/82/67 22/38/38
f 22/38/38 53/82/67 52/81/66
f 33/5/5 54/83/68 30/54/52
f 30/54/52 54/83/68 53/82/67
f 54/83/68 33/5/5 41/69/55
f 41/69/55 33/5/5 3/7/7
f 56/84/69 55/85/70 42/70/56
f 42/70/56 55/85/70 41/69/55
f 57/86/71 56/84/69 43/71/57
f 43/71/57 56/84/69 42/70/56
f 58/87/72 57/86/71 44/72/58
f 44/72/58 57/86/71 43/71/57
f 45/73/59 59/88/73 44/72/58
f 44/72/58 59/88/73 58/87/72
f 59/89/73 45/74/59 60/90/74
f 60/90/74 45/74/59 46/75/60
f 47/76/61 61/91/75 46/75/60
f 46/75/60 61/91/75 60/90/74
f 48/77/62 62/92/76 47/76/61
f 47/76/61 62/92/76 61/91/75
f 63/93/77 62/92/76 49/78/63
f 49/78/63 62/92/76 48/77/62
f 64/94/78 63/93/77 50/79/64
f 50/79/64 63/93/77 49/78/63
f 64/94/78 50/79/64 65/95/79
f 65/95/79 50/79/64 51/80/65
f 52/81/66 66/96/80 51/80/65
f 51/80/65 66/96/80 65/95/79
f 53/82/67 67/97/81 52/81/66
f 52/81/66 67/97/81 66/96/80
f 54/83/68 68/98/82 53/82/67
f 53/82/67 68/98/82 67/97/81
f 68/98/82 54/83/68 55/85/70
f 55/85/70 54/83/68 41/69/55
f 70/19/19 69/3/3 56/84/69
f 56/84/69 69/3/3 55/85/70
f 71/23/23 70/19/19 57/86/71
f 57/86/71 70/19/19 56/84/69
f 72/11/11 71/23/23 58/87/72
f 58/87/72 71/23/23 57/86/71
f 59/88/73 73/9/9 58/87/72
f 58/87/72 73/9/9 72/11/11
f 73/99/9 59/89/73 74/45/45
f 74/45/45 59/89/73 60/90/74
f 61/91/75 75/31/31 60/90/74
f 60/90/74 75/31/31 74/45/45
f 62/92/76 76/29/29 61/91/75
f 61/91/75 76/29/29 75/31/31
f 77/25/25 76/29/29 63/93/77
f 63/93/77 76/29/29 62/92/76
f 64/94/78 78/16/16 63/93/77
f 63/93/77 78/16/16 77/25/25
f 78/16/16 64/94/78 79/18/18
f 79/18/18 64/94/78 65/95/79
f 66/96/80 80/36/36 65/95/79
f 65/95/79 80/36/36 79/18/18
f 67/97/81 81/52/50 66/96/80
f 66/96/80 81/52/50 80/36/36
f 82/4/4 81/52/50 68/98/82
f 68/98/82 81/52/50 67/97/81
f 69/3/3 82/4/4 55/85/70
f 55/85/70 82/4/4 68/98/82
