# This file uses centimeters as units for non-parametric coordinates.

mtllib alex.mtl
v -6.736025 -0.000884 6.736025
v 6.736025 -0.000884 6.736025
v -3.872767 109.033409 3.872767
v 3.872767 109.033409 3.872767
v -3.872767 109.033409 -3.872767
v 3.872767 109.033409 -3.872767
v -6.736025 -0.000884 -6.736025
v 6.736025 -0.000884 -6.736025
v 0.000000 116.322067 0.000000
v 4.416082 9.475520 6.984660
v 4.416082 9.475520 6.091672
v 4.416082 14.783254 6.984660
v 4.416082 14.783254 6.091672
v -4.416082 14.783254 6.984660
v -4.416082 14.783254 6.091673
v -4.416082 9.475520 6.984660
v -4.416082 9.475520 6.091673
vt 0.689565 0.042471
vt 0.769786 0.122083
vt 0.102358 0.753699
vt 0.058802 0.704894
vt 0.186946 0.853383
vt 0.145143 0.803199
vt 0.845510 0.205923
vt 0.916719 0.293793
vt 0.982997 0.385830
vt 0.227718 0.904081
vt 0.023309 0.768597
vt 0.069217 0.821479
vt 0.114271 0.874606
vt 0.158741 0.928370
vt 0.900036 0.113675
vt 0.980992 0.113633
vt 0.981223 0.594615
vt 0.900335 0.594651
vt 0.900410 0.675542
vt 0.100048 0.676273
vt 0.099975 0.595320
vt 0.019023 0.595359
vt 0.018779 0.114377
vt 0.099672 0.114334
vt 0.099602 0.033435
vt 0.899964 0.032730
vn 0.000000 0.026251 0.999655
vn 0.000000 0.026251 0.999655
vn 0.000000 0.026251 0.999655
vn 0.000000 0.026251 0.999655
vn 0.000000 0.026251 -0.999655
vn 0.000000 0.026251 -0.999655
vn 0.000000 0.026251 -0.999655
vn 0.000000 0.026251 -0.999655
vn 0.999655 0.026251 0.000000
vn 0.999655 0.026251 0.000000
vn 0.999655 0.026251 0.000000
vn 0.999655 0.026251 0.000000
vn -0.999655 0.026251 0.000000
vn -0.999655 0.026251 0.000000
vn -0.999655 0.026251 0.000000
vn -0.999655 0.026251 0.000000
vn 0.000000 0.469219 0.883082
vn 0.000000 0.469219 0.883082
vn 0.000000 0.469219 0.883082
vn 0.883082 0.469218 0.000000
vn 0.883082 0.469218 0.000000
vn 0.883082 0.469218 0.000000
vn 0.000000 0.469219 -0.883082
vn 0.000000 0.469219 -0.883082
vn 0.000000 0.469219 -0.883082
vn -0.883082 0.469218 0.000000
vn -0.883082 0.469218 0.000000
vn -0.883082 0.469218 0.000000
vn 1.000000 0.000000 0.000000
vn 1.000000 0.000000 0.000000
vn 1.000000 0.000000 0.000000
vn 1.000000 0.000000 0.000000
vn 0.000000 1.000000 0.000000
vn 0.000000 1.000000 0.000000
vn 0.000000 1.000000 0.000000
vn 0.000000 1.000000 0.000000
vn -1.000000 0.000000 0.000000
vn -1.000000 0.000000 0.000000
vn -1.000000 0.000000 0.000000
vn -1.000000 0.000000 0.000000
vn 0.000000 -1.000000 0.000000
vn 0.000000 -1.000000 0.000000
vn 0.000000 -1.000000 0.000000
vn 0.000000 -1.000000 0.000000
vn 0.000000 0.000000 1.000000
vn 0.000000 0.000000 1.000000
vn 0.000000 0.000000 1.000000
vn 0.000000 0.000000 1.000000
s 1
g alex triangle_done
usemtl lambert11SG
f 1/1/1 2/2/2 3/4/3
f 3/4/3 2/2/2 4/3/4
s 2
f 5/5/5 6/6/6 7/8/7
f 7/8/7 6/6/6 8/7/8
s 3
f 2/2/9 8/7/10 4/3/11
f 4/3/11 8/7/10 6/6/12
s 4
f 7/8/13 1/9/14 5/5/15
f 5/5/15 1/9/14 3/10/16
s off
f 3/4/17 4/3/18 9/11/19
f 4/3/20 6/6/21 9/12/22
f 6/6/23 5/5/24 9/13/25
f 5/5/26 3/10/27 9/14/28
s 5
usemtl lambert21SG
f 10/15/29 11/16/30 12/18/31
f 12/18/31 11/16/30 13/17/32
s 6
f 12/18/33 13/19/34 14/21/35
f 14/21/35 13/19/34 15/20/36
s 7
f 14/21/37 15/22/38 16/24/39
f 16/24/39 15/22/38 17/23/40
s 8
f 16/24/41 17/25/42 10/15/43
f 10/15/43 17/25/42 11/26/44
s 9
f 16/24/45 10/15/46 14/21/47
f 14/21/47 10/15/46 12/18/48
