# This file uses centimeters as units for non-parametric coordinates.

mtllib tille.mtl
v 0.000000 33.455292 -2.721700
v 0.000000 33.455292 2.721700
v -10.363710 11.810202 2.177414
v -9.744822 12.429091 2.721700
v 0.000000 12.429091 2.721700
v 0.000000 11.810202 2.177414
v -10.363710 11.810202 -2.177414
v -9.744822 12.429091 -2.721700
v 0.000000 11.810202 -2.177414
v 0.000000 12.429091 -2.721700
v -10.363710 33.455292 2.177414
v -9.744676 33.455292 2.721700
v 9.744822 12.429091 2.721700
v 10.363710 11.810202 2.177414
v 9.744676 33.455292 2.721700
v 10.363710 33.455292 2.177414
v -9.744676 33.455292 -2.721700
v -10.363710 33.455292 -2.177414
v 10.363710 33.455292 -2.177414
v 9.744676 33.455292 -2.721700
v 9.744822 12.429091 -2.721700
v 10.363710 11.810202 -2.177414
v 9.836345 35.950645 -2.177414
v 9.254772 35.709385 -2.721700
v 8.367294 38.201740 -2.177414
v 7.905274 37.777287 -2.721700
v 6.079195 39.988216 -2.177414
v 5.768136 39.445900 -2.721700
v 3.196022 41.135216 -2.177414
v 3.041146 40.530762 -2.721700
v 0.000000 40.911537 -2.721700
v 0.000000 41.530426 -2.177414
v -3.196022 41.135216 -2.177414
v -3.041145 40.530762 -2.721700
v -6.079192 39.988216 -2.177414
v -5.768130 39.445900 -2.721700
v -8.367292 38.201733 -2.177414
v -7.905273 37.777283 -2.721700
v -9.836336 35.950645 -2.177414
v -9.254771 35.709385 -2.721700
v 9.836345 35.950645 2.177414
v 9.254772 35.709385 2.721700
v 8.367294 38.201740 2.177414
v 7.905274 37.777287 2.721700
v 6.079195 39.988216 2.177414
v 5.768136 39.445900 2.721700
v 3.196022 41.135216 2.177414
v 3.041146 40.530762 2.721700
v 0.000000 40.911537 2.721700
v 0.000000 41.530426 2.177414
v -3.196022 41.135216 2.177414
v -3.041145 40.530762 2.721700
v -6.079192 39.988216 2.177414
v -5.768130 39.445900 2.721700
v -8.367292 38.201733 2.177414
v -7.905273 37.777283 2.721700
v -9.836336 35.950645 2.177414
v -9.254771 35.709385 2.721700
v -9.836336 35.950645 0.000000
v -8.367292 38.201733 0.000000
v -6.079192 39.988216 0.000000
v -3.196022 41.135216 0.000000
v -0.000000 41.530426 0.000000
v 3.196022 41.135216 0.000000
v 6.079195 39.988216 0.000000
v 8.367294 38.201740 0.000000
v 9.836345 35.950645 0.000000
v 10.363710 33.455292 0.000000
v 10.363710 11.810202 0.000000
v -0.000000 11.810202 0.000000
v -10.363710 11.810202 0.000000
v -10.363710 33.455292 0.000000
v -17.712917 13.863069 -8.051572
v -17.712917 13.759237 -8.155401
v -17.816746 13.759237 -8.051572
v -17.931419 4.153571 -8.215693
v -17.816746 4.257401 -8.051572
v -17.712917 4.257401 -8.155401
v 16.447029 4.153571 -8.215693
v 16.228527 4.257400 -8.155401
v 16.332355 4.257400 -8.051572
v 16.228527 13.759237 -8.155401
v 16.228527 13.863069 -8.051572
v 16.332355 13.759237 -8.051572
v -27.486792 0.103829 -13.294193
v -27.486792 0.000000 -13.190365
v -27.590622 0.103829 -13.190365
v -27.477135 4.153571 -13.234526
v -27.486792 4.049742 -13.294193
v -27.590622 4.049742 -13.190365
v 26.002401 0.000000 -13.190365
v 26.002401 0.103829 -13.294193
v 26.106232 0.103829 -13.190365
v 25.992744 4.153571 -13.234526
v 26.106232 4.049742 -13.190365
v 26.002401 4.049742 -13.294193
v -17.816746 13.759237 0.000000
v -17.816746 4.257400 0.000000
v -17.931419 4.153571 0.000000
v 16.228523 13.863069 0.000000
v -17.712917 13.863069 0.000000
v 16.332355 13.759237 0.000000
v 16.332355 4.257400 0.000000
v 16.447029 4.153571 0.000000
v 26.002401 0.000000 0.000000
v -27.486792 0.000000 0.000000
v -27.590622 4.049742 0.000000
v -27.590622 0.103829 0.000000
v -27.477135 4.153571 0.000000
v 26.106232 0.103829 0.000000
v 26.106232 4.049742 0.000000
v 25.992743 4.153571 0.000000
v -17.712917 13.863069 8.051572
v -17.712917 13.759237 8.155401
v -17.816746 13.759237 8.051572
v -17.931419 4.153571 8.215693
v -17.816746 4.257401 8.051572
v -17.712917 4.257401 8.155401
v 16.447029 4.153571 8.215693
v 16.228527 4.257400 8.155401
v 16.332355 4.257400 8.051572
v 16.228527 13.759237 8.155401
v 16.228527 13.863069 8.051572
v 16.332355 13.759237 8.051572
v -27.486792 0.103829 13.294193
v -27.486792 0.000000 13.190365
v -27.590622 0.103829 13.190365
v -27.477135 4.153571 13.234526
v -27.486792 4.049742 13.294193
v -27.590622 4.049742 13.190365
v 26.002401 0.000000 13.190365
v 26.002401 0.103829 13.294193
v 26.106232 0.103829 13.190365
v 25.992744 4.153571 13.234526
v 26.106232 4.049742 13.190365
v 26.002401 4.049742 13.294193
vt 0.486934 0.575853
vt 0.486930 0.045794
vt 0.722408 0.045794
vt 0.722408 0.575853
vt 0.230582 0.032580
vt 0.024592 0.032580
vt 0.024595 0.496260
vt 0.230582 0.496260
vt 0.011510 0.018932
vt 0.230582 0.018932
vt 0.722408 0.030192
vt 0.471975 0.030192
vt 0.972842 0.575853
vt 0.972842 0.030192
vt 0.449653 0.018932
vt 0.449653 0.496260
vt 0.011510 0.496260
vt 0.471975 0.575853
vt 0.436568 0.496260
vt 0.436571 0.032580
vt 0.957887 0.045794
vt 0.957884 0.575853
vt 0.438506 0.551289
vt 0.407452 0.600931
vt 0.924600 0.695508
vt 0.960098 0.638760
vt 0.359086 0.640327
vt 0.869309 0.740545
vt 0.298140 0.665621
vt 0.799639 0.769460
vt 0.230582 0.674337
vt 0.722408 0.779423
vt 0.163023 0.665621
vt 0.645178 0.769460
vt 0.102078 0.640327
vt 0.575508 0.740545
vt 0.053711 0.600931
vt 0.520217 0.695508
vt 0.022658 0.551289
vt 0.484719 0.638760
vt 0.034951 0.545968
vt 0.063477 0.591571
vt 0.108653 0.628368
vt 0.166297 0.652292
vt 0.230582 0.660689
vt 0.294866 0.652292
vt 0.352510 0.628368
vt 0.397686 0.591571
vt 0.426212 0.545968
vt 0.722408 0.763821
vt 0.648921 0.754222
vt 0.583025 0.726873
vt 0.531382 0.684808
vt 0.498772 0.632678
vt 0.946045 0.632678
vt 0.913435 0.684808
vt 0.861792 0.726873
vt 0.795896 0.754222
vt 0.781992 0.939651
vt 0.595914 0.939651
vt 0.595914 0.861461
vt 0.781991 0.861461
vt 0.409837 0.861461
vt 0.409837 0.939651
vt 0.798468 0.978187
vt 0.409837 0.978187
vt 0.409837 0.899997
vt 0.798468 0.899997
vt 0.843271 0.899998
vt 0.843271 0.978187
vt 0.883689 0.899997
vt 0.883689 0.978187
vt 0.915765 0.899997
vt 0.915765 0.978187
vt 0.798468 0.896569
vt 0.409837 0.896569
vt 0.409837 0.818379
vt 0.798468 0.818379
vt 0.843271 0.896569
vt 0.843271 0.818379
vt 0.883689 0.896569
vt 0.883689 0.818379
vt 0.915765 0.896569
vt 0.915765 0.818379
vt 0.015755 0.857944
vt 0.080898 0.857944
vt 0.080898 0.956337
vt 0.015756 0.956337
vt 0.153110 0.857944
vt 0.153110 0.956337
vt 0.225321 0.857944
vt 0.225321 0.956337
vt 0.290464 0.857944
vt 0.290464 0.956337
vt 0.843271 0.855051
vt 0.883689 0.855051
vt 0.290464 0.910189
vt 0.915765 0.855051
vt 0.225321 0.910189
vt 0.153110 0.910189
vt 0.080898 0.910189
vt 0.915765 0.941515
vt 0.015755 0.910189
vt 0.883689 0.941515
vt 0.843271 0.941515
vt 0.798468 0.941515
vt 0.409837 0.898133
vt 0.409837 0.941515
vt 0.595914 0.898133
vt 0.409837 0.855051
vt 0.781992 0.898133
vt 0.798468 0.855051
vt 0.083346 0.655496
vt 0.082461 0.506635
vt 0.189812 0.505984
vt 0.190297 0.598309
vt 0.792322 0.761332
vt 0.191142 0.761962
vt 0.298428 0.705488
vt 0.684956 0.704904
vt 0.793318 0.594981
vt 0.792155 0.502666
vt 0.899497 0.501098
vt 0.901608 0.649939
vt 0.682310 0.596437
vt 0.682529 0.703420
vt 0.300915 0.704221
vt 0.300696 0.597479
vt 0.684163 0.594359
vt 0.683477 0.503929
vt 0.790347 0.502753
vt 0.791171 0.593362
vt 0.792408 0.808980
vt 0.792420 0.957321
vt 0.191024 0.957387
vt 0.191012 0.809115
vt 0.191012 0.763233
vt 0.792408 0.762789
vt 0.792418 0.807249
vt 0.191022 0.807529
vt 0.300675 0.595930
vt 0.682397 0.594618
vt 0.299121 0.595777
vt 0.299415 0.597324
vt 0.192705 0.598186
vt 0.192260 0.596576
vt 0.790760 0.594996
vt 0.683936 0.595924
vt 0.681806 0.503974
vt 0.037524 0.655158
vt 0.035973 0.655390
vt 0.034734 0.506933
vt 0.036387 0.506922
vt 0.037340 0.656718
vt 0.081751 0.654851
vt 0.081986 0.656407
vt 0.947477 0.648570
vt 0.947696 0.650117
vt 0.903041 0.650781
vt 0.903229 0.649215
vt 0.901209 0.501026
vt 0.949039 0.648761
vt 0.191623 0.505967
vt 0.298501 0.505346
vt 0.300173 0.505345
vt 0.080747 0.506650
vt 0.945564 0.500348
vt 0.947217 0.500312
vt 0.081553 0.357777
vt 0.189216 0.413660
vt 0.790922 0.247712
vt 0.683607 0.304091
vt 0.297079 0.304527
vt 0.189742 0.248081
vt 0.791105 0.410343
vt 0.897398 0.352245
vt 0.681296 0.411963
vt 0.299683 0.412927
vt 0.299499 0.305979
vt 0.681113 0.305297
vt 0.682568 0.413500
vt 0.789292 0.412155
vt 0.791087 0.200636
vt 0.189690 0.200488
vt 0.189750 0.052151
vt 0.791147 0.052370
vt 0.189662 0.246647
vt 0.189677 0.202206
vt 0.791074 0.202208
vt 0.791058 0.246480
vt 0.681204 0.413428
vt 0.299698 0.414705
vt 0.298111 0.414913
vt 0.191223 0.415356
vt 0.191647 0.413739
vt 0.298373 0.413356
vt 0.682222 0.411970
vt 0.788831 0.410568
vt 0.035728 0.358684
vt 0.034174 0.358472
vt 0.035525 0.357128
vt 0.080174 0.356889
vt 0.079960 0.358449
vt 0.943158 0.352119
vt 0.898958 0.352840
vt 0.898696 0.351289
vt 0.943327 0.350551
vt 0.944703 0.351869
vn -0.054051 0.001306 0.998537
vn -0.071100 -0.033982 0.996890
vn 0.000000 0.000000 1.000000
vn 0.000000 -0.025138 0.999684
vn 0.000000 -0.025138 -0.999684
vn -0.071100 -0.033982 -0.996890
vn -0.000000 0.000000 -1.000000
vn -0.054051 0.001306 -0.998537
vn -0.885284 -0.423876 -0.191314
vn 0.000000 -0.977257 -0.212059
vn -0.901944 -0.431853 0.000000
vn 0.000000 -1.000000 0.000000
vn 0.999761 0.021841 0.000000
vn 0.901944 -0.431853 0.000000
vn 0.976226 0.021053 -0.215728
vn 0.885284 -0.423876 -0.191314
vn -0.976227 0.021053 -0.215728
vn -0.999761 0.021841 0.000000
vn 0.054051 0.001306 -0.998537
vn 0.071099 -0.033982 -0.996890
vn 0.054051 0.001306 0.998537
vn 0.071099 -0.033982 0.996890
vn 0.901869 0.381095 -0.203465
vn 0.715740 0.667366 -0.205766
vn 0.921780 0.387712 0.000000
vn 0.732072 0.681227 0.000000
vn 0.482019 0.851155 -0.207830
vn 0.493406 0.869799 0.000000
vn 0.239936 0.947960 -0.209289
vn 0.245897 0.969296 0.000000
vn -0.000000 0.978695 -0.205320
vn -0.000000 1.000000 0.000000
vn -0.239936 0.947960 -0.209290
vn -0.245897 0.969296 0.000000
vn -0.482020 0.851154 -0.207831
vn -0.493407 0.869799 0.000000
vn -0.715741 0.667365 -0.205764
vn -0.732072 0.681227 0.000000
vn -0.901869 0.381096 -0.203463
vn -0.921780 0.387713 0.000000
vn -0.062367 0.027035 -0.997687
vn -0.051698 0.048700 -0.997475
vn -0.036353 0.064724 -0.997241
vn -0.018652 0.074440 -0.997051
vn -0.000000 0.076452 -0.997073
vn 0.062367 0.027035 -0.997687
vn 0.051698 0.048700 -0.997475
vn 0.036353 0.064724 -0.997241
vn 0.018652 0.074440 -0.997051
vn -0.062367 0.027035 0.997687
vn -0.051698 0.048700 0.997475
vn -0.036353 0.064724 0.997241
vn -0.018652 0.074440 0.997051
vn -0.000000 0.076452 0.997073
vn 0.062367 0.027035 0.997687
vn 0.051698 0.048700 0.997475
vn 0.036353 0.064724 0.997241
vn 0.018652 0.074440 0.997051
vn -0.885284 -0.423876 0.191314
vn 0.000000 -0.977257 0.212059
vn -0.976226 0.021053 0.215728
vn 0.885284 -0.423876 0.191314
vn -0.901869 0.381096 0.203463
vn 0.976226 0.021053 0.215728
vn 0.901869 0.381095 0.203465
vn 0.715740 0.667366 0.205765
vn 0.482019 0.851155 0.207830
vn 0.239936 0.947960 0.209289
vn 0.000000 0.978695 0.205320
vn -0.239936 0.947960 0.209290
vn -0.482020 0.851154 0.207831
vn -0.715741 0.667365 0.205764
vn -0.007469 0.999234 -0.038402
vn -0.012900 0.999917 0.000000
vn -0.000960 0.999996 -0.002653
vn -0.010538 0.999945 0.000000
vn 0.006504 0.999420 -0.033431
vn 0.000706 0.999998 -0.001927
vn 0.010538 0.999945 0.000000
vn 0.012900 0.999917 0.000000
vn 0.003039 0.010798 -0.999937
vn 0.003018 0.010498 -0.999940
vn -0.003039 0.010798 -0.999937
vn -0.003017 0.010630 -0.999939
vn 0.999862 0.010762 -0.012684
vn 0.999942 0.010809 0.000000
vn 0.999749 0.018483 -0.012640
vn 0.999929 0.011937 0.000000
vn 0.001932 -0.999968 -0.007805
vn 0.001937 -0.999998 0.000000
vn -0.001932 -0.999968 -0.007805
vn -0.001937 -0.999998 0.000000
vn -0.001930 0.013996 -0.999900
vn 0.001930 0.013991 -0.999900
vn -0.001920 -0.025614 -0.999670
vn 0.001920 -0.025614 -0.999670
vn -0.003037 0.999915 -0.012718
vn 0.003037 0.999915 -0.012718
vn -0.999862 0.010762 -0.012684
vn -0.999749 0.018483 -0.012640
vn 0.003050 0.999995 -0.000000
vn -0.999643 -0.025564 -0.007741
vn -0.999672 -0.025630 0.000000
vn -0.999434 0.032764 -0.007673
vn 0.999643 -0.025565 -0.007741
vn 0.999434 0.032764 -0.007673
vn 0.999608 0.028011 0.000000
vn -0.999929 0.011937 0.000000
vn -0.999942 0.010808 0.000000
vn -0.003050 0.999995 0.000000
vn -0.999608 0.028011 0.000000
vn 0.999672 -0.025629 0.000000
vn -0.007469 0.999235 0.038402
vn -0.000960 0.999996 0.002653
vn 0.006504 0.999420 0.033431
vn 0.000706 0.999998 0.001927
vn 0.003039 0.010798 0.999937
vn -0.003039 0.010798 0.999937
vn 0.003018 0.010498 0.999940
vn -0.003017 0.010630 0.999939
vn 0.999862 0.010762 0.012684
vn 0.999749 0.018483 0.012640
vn 0.001932 -0.999968 0.007805
vn -0.001932 -0.999968 0.007805
vn -0.001930 0.013996 0.999900
vn -0.001920 -0.025614 0.999670
vn 0.001930 0.013991 0.999900
vn 0.001920 -0.025614 0.999670
vn -0.003037 0.999915 0.012718
vn 0.003037 0.999915 0.012718
vn -0.999862 0.010762 0.012684
vn -0.999749 0.018483 0.012640
vn -0.999643 -0.025564 0.007741
vn -0.999434 0.032764 0.007673
vn 0.999643 -0.025565 0.007741
vn 0.999434 0.032764 0.007673
s 1
g tille triangle_done
usemtl lambert18SG
f 12/1/1 4/2/2 2/4/3
f 2/4/3 4/2/2 5/3/4
f 10/5/5 8/6/6 1/8/7
f 1/8/7 8/6/6 17/7/8
f 7/59/9 9/60/10 71/111/11
f 71/111/11 9/60/10 70/109/12
f 68/106/13 69/108/14 19/68/15
f 19/68/15 69/108/14 22/67/16
f 18/75/17 7/76/9 72/112/18
f 72/112/18 7/76/9 71/110/11
f 1/8/7 20/19/19 10/5/5
f 10/5/5 20/19/19 21/20/20
f 69/107/14 70/109/12 22/64/16
f 22/64/16 70/109/12 9/60/10
f 2/4/3 5/3/4 15/22/21
f 15/22/21 5/3/4 13/21/22
f 23/69/23 25/71/24 67/105/25
f 67/105/25 25/71/24 66/104/26
f 25/71/24 27/73/27 66/104/26
f 66/104/26 27/73/27 65/102/28
f 27/85/27 29/86/29 65/103/28
f 65/103/28 29/86/29 64/101/30
f 29/86/29 32/89/31 64/101/30
f 64/101/30 32/89/31 63/100/32
f 32/89/31 33/91/33 63/100/32
f 63/100/32 33/91/33 62/99/34
f 33/91/33 35/93/35 62/99/34
f 62/99/34 35/93/35 61/97/36
f 35/83/35 37/81/37 61/98/36
f 61/98/36 37/81/37 60/96/38
f 37/81/37 39/79/39 60/96/38
f 60/96/38 39/79/39 59/95/40
f 39/79/39 18/75/17 59/95/40
f 59/95/40 18/75/17 72/112/18
f 19/68/15 23/69/23 68/106/13
f 68/106/13 23/69/23 67/105/25
f 17/7/8 40/41/41 1/8/7
f 40/41/41 38/42/42 1/8/7
f 38/42/42 36/43/43 1/8/7
f 36/43/43 34/44/44 1/8/7
f 34/44/44 31/45/45 1/8/7
f 20/19/19 1/8/7 24/49/46
f 24/49/46 1/8/7 26/48/47
f 26/48/47 1/8/7 28/47/48
f 28/47/48 1/8/7 30/46/49
f 31/45/45 30/46/49 1/8/7
f 12/1/1 2/4/3 58/54/50
f 58/54/50 2/4/3 56/53/51
f 56/53/51 2/4/3 54/52/52
f 54/52/52 2/4/3 52/51/53
f 2/4/3 49/50/54 52/51/53
f 15/22/21 42/55/55 2/4/3
f 42/55/55 44/56/56 2/4/3
f 44/56/56 46/57/57 2/4/3
f 46/57/57 48/58/58 2/4/3
f 2/4/3 48/58/58 49/50/54
f 3/12/59 6/11/60 4/2/2
f 4/2/2 6/11/60 5/3/4
f 3/12/59 4/2/2 11/18/61
f 11/18/61 4/2/2 12/1/1
f 5/3/4 6/11/60 13/21/22
f 13/21/22 6/11/60 14/14/62
f 7/9/9 18/17/17 8/6/6
f 8/6/6 18/17/17 17/7/8
f 7/9/9 8/6/6 9/10/10
f 9/10/10 8/6/6 10/5/5
f 10/5/5 21/20/20 9/10/10
f 9/10/10 21/20/20 22/15/16
f 11/18/61 12/1/1 57/40/63
f 57/40/63 12/1/1 58/54/50
f 14/14/62 16/13/64 13/21/22
f 13/21/22 16/13/64 15/22/21
f 16/13/64 41/26/65 15/22/21
f 15/22/21 41/26/65 42/55/55
f 18/17/17 39/39/39 17/7/8
f 17/7/8 39/39/39 40/41/41
f 19/16/15 20/19/19 23/23/23
f 23/23/23 20/19/19 24/49/46
f 20/19/19 19/16/15 21/20/20
f 21/20/20 19/16/15 22/15/16
f 23/23/23 24/49/46 25/24/24
f 25/24/24 24/49/46 26/48/47
f 25/24/24 26/48/47 27/27/27
f 27/27/27 26/48/47 28/47/48
f 27/27/27 28/47/48 29/29/29
f 29/29/29 28/47/48 30/46/49
f 29/29/29 30/46/49 32/31/31
f 32/31/31 30/46/49 31/45/45
f 31/45/45 34/44/44 32/31/31
f 32/31/31 34/44/44 33/33/33
f 34/44/44 36/43/43 33/33/33
f 33/33/33 36/43/43 35/35/35
f 36/43/43 38/42/42 35/35/35
f 35/35/35 38/42/42 37/37/37
f 38/42/42 40/41/41 37/37/37
f 37/37/37 40/41/41 39/39/39
f 41/26/65 43/25/66 42/55/55
f 42/55/55 43/25/66 44/56/56
f 43/25/66 45/28/67 44/56/56
f 44/56/56 45/28/67 46/57/57
f 45/28/67 47/30/68 46/57/57
f 46/57/57 47/30/68 48/58/58
f 47/30/68 50/32/69 48/58/58
f 48/58/58 50/32/69 49/50/54
f 49/50/54 50/32/69 52/51/53
f 52/51/53 50/32/69 51/34/70
f 52/51/53 51/34/70 54/52/52
f 54/52/52 51/34/70 53/36/71
f 54/52/52 53/36/71 56/53/51
f 56/53/51 53/36/71 55/38/72
f 56/53/51 55/38/72 58/54/50
f 58/54/50 55/38/72 57/40/63
f 60/96/38 59/95/40 55/82/72
f 55/82/72 59/95/40 57/80/63
f 61/98/36 60/96/38 53/84/71
f 53/84/71 60/96/38 55/82/72
f 62/99/34 61/97/36 51/92/70
f 51/92/70 61/97/36 53/94/71
f 63/100/32 62/99/34 50/90/69
f 50/90/69 62/99/34 51/92/70
f 64/101/30 63/100/32 47/87/68
f 47/87/68 63/100/32 50/90/69
f 65/103/28 64/101/30 45/88/67
f 45/88/67 64/101/30 47/87/68
f 66/104/26 65/102/28 43/72/66
f 43/72/66 65/102/28 45/74/67
f 67/105/25 66/104/26 41/70/65
f 41/70/65 66/104/26 43/72/66
f 68/106/13 67/105/25 16/65/64
f 16/65/64 67/105/25 41/70/65
f 16/65/64 14/66/62 68/106/13
f 68/106/13 14/66/62 69/108/14
f 14/63/62 6/61/60 69/107/14
f 69/107/14 6/61/60 70/109/12
f 71/111/11 70/109/12 3/62/59
f 3/62/59 70/109/12 6/61/60
f 72/112/18 71/110/11 11/78/61
f 11/78/61 71/110/11 3/77/59
f 59/95/40 72/112/18 57/80/63
f 57/80/63 72/112/18 11/78/61
s 8
usemtl lambert17SG
f 88/113/73 109/114/74 76/116/75
f 76/116/75 109/114/74 99/115/76
f 94/117/77 88/118/73 79/120/78
f 79/120/78 88/118/73 76/119/75
f 104/122/79 112/123/80 79/121/78
f 79/121/78 112/123/80 94/124/77
f 82/125/81 80/126/82 74/128/83
f 74/128/83 80/126/82 78/127/84
f 84/129/85 102/130/86 81/132/87
f 81/132/87 102/130/86 103/131/88
f 91/133/89 105/134/90 86/136/91
f 86/136/91 105/134/90 106/135/92
f 89/137/93 96/138/94 85/140/95
f 85/140/95 96/138/94 92/139/96
f 74/128/83 73/141/97 82/125/81
f 82/125/81 73/141/97 83/142/98
f 75/143/99 74/144/83 77/146/100
f 77/146/100 74/144/83 78/145/84
f 76/119/75 78/127/84 79/120/78
f 79/120/78 78/127/84 80/126/82
f 81/132/87 80/147/82 84/129/85
f 84/129/85 80/147/82 82/148/81
f 79/121/78 81/132/87 104/122/79
f 104/122/79 81/132/87 103/131/88
f 84/129/85 83/142/98 102/130/86
f 102/130/86 83/142/98 100/149/101
f 86/136/91 85/140/95 91/133/89
f 91/133/89 85/140/95 92/139/96
f 87/150/102 86/151/91 108/153/103
f 108/153/103 86/151/91 106/152/92
f 85/154/95 87/150/102 89/156/93
f 89/156/93 87/150/102 90/155/104
f 89/137/93 88/118/73 96/138/94
f 96/138/94 88/118/73 94/117/77
f 93/157/105 92/158/96 95/160/106
f 95/160/106 92/158/96 96/159/94
f 94/124/77 112/123/80 95/160/106
f 95/160/106 112/123/80 111/161/107
f 73/141/97 74/144/83 75/143/99
f 76/116/75 77/146/100 78/145/84
f 79/121/78 80/147/82 81/132/87
f 82/148/81 83/142/98 84/129/85
f 85/154/95 86/151/91 87/150/102
f 88/113/73 89/156/93 90/155/104
f 91/162/89 92/158/96 93/157/105
f 94/124/77 95/160/106 96/159/94
f 98/163/108 97/164/109 77/146/100
f 77/146/100 97/164/109 75/143/99
f 101/165/110 100/149/101 73/141/97
f 73/141/97 100/149/101 83/142/98
f 108/153/103 107/166/111 87/150/102
f 87/150/102 107/166/111 90/155/104
f 111/161/107 110/167/112 95/160/106
f 95/160/106 110/167/112 93/157/105
f 98/163/108 77/146/100 99/115/76
f 99/115/76 77/146/100 76/116/75
f 97/164/109 101/165/110 75/143/99
f 75/143/99 101/165/110 73/141/97
f 107/166/111 109/114/74 90/155/104
f 90/155/104 109/114/74 88/113/73
f 110/167/112 105/168/90 93/157/105
f 93/157/105 105/168/90 91/162/89
f 128/169/113 116/170/114 109/114/74
f 109/114/74 116/170/114 99/115/76
f 134/171/115 119/172/116 128/174/113
f 128/174/113 119/172/116 116/173/114
f 134/176/115 112/123/80 119/175/116
f 119/175/116 112/123/80 104/122/79
f 122/177/117 114/178/118 120/180/119
f 120/180/119 114/178/118 118/179/120
f 124/181/121 121/182/122 102/130/86
f 102/130/86 121/182/122 103/131/88
f 131/183/123 126/184/124 105/186/90
f 105/186/90 126/184/124 106/185/92
f 129/187/125 125/188/126 136/190/127
f 136/190/127 125/188/126 132/189/128
f 114/178/118 122/177/117 113/192/129
f 113/192/129 122/177/117 123/191/130
f 115/193/131 117/194/132 114/196/118
f 114/196/118 117/194/132 118/195/120
f 116/173/114 119/172/116 118/179/120
f 118/179/120 119/172/116 120/180/119
f 121/182/122 124/181/121 120/198/119
f 120/198/119 124/181/121 122/197/117
f 119/175/116 104/122/79 121/182/122
f 121/182/122 104/122/79 103/131/88
f 124/181/121 102/130/86 123/191/130
f 123/191/130 102/130/86 100/149/101
f 126/184/124 131/183/123 125/188/126
f 125/188/126 131/183/123 132/189/128
f 127/199/133 108/153/103 126/200/124
f 126/200/124 108/153/103 106/152/92
f 125/201/126 129/202/125 127/199/133
f 127/199/133 129/202/125 130/203/134
f 129/187/125 136/190/127 128/174/113
f 128/174/113 136/190/127 134/171/115
f 133/204/135 135/205/136 132/207/128
f 132/207/128 135/205/136 136/206/127
f 111/161/107 112/123/80 135/205/136
f 135/205/136 112/123/80 134/176/115
f 113/192/129 115/193/131 114/196/118
f 116/170/114 118/195/120 117/194/132
f 119/175/116 121/182/122 120/198/119
f 122/197/117 124/181/121 123/191/130
f 125/201/126 127/199/133 126/200/124
f 128/169/113 130/203/134 129/202/125
f 131/208/123 133/204/135 132/207/128
f 134/176/115 136/206/127 135/205/136
f 98/163/108 117/194/132 97/164/109
f 97/164/109 117/194/132 115/193/131
f 101/165/110 113/192/129 100/149/101
f 100/149/101 113/192/129 123/191/130
f 108/153/103 127/199/133 107/166/111
f 107/166/111 127/199/133 130/203/134
f 111/161/107 135/205/136 110/167/112
f 110/167/112 135/205/136 133/204/135
f 116/170/114 117/194/132 99/115/76
f 99/115/76 117/194/132 98/163/108
f 97/164/109 115/193/131 101/165/110
f 101/165/110 115/193/131 113/192/129
f 107/166/111 130/203/134 109/114/74
f 109/114/74 130/203/134 128/169/113
f 110/167/112 133/204/135 105/168/90
f 105/168/90 133/204/135 131/208/123
